<svg xmlns="http://www.w3.org/2000/svg" viewBox="0 0 280.22 558">
  <path d="M40,558H0Q0,279,0,0H152c1.75.31,4.05,2.18,5,3a105.84,105.84,0,0,1,12.66,12.67A418.11,418.11,0,0,1,195.72,49a210.18,210.18,0,0,1,19,32.62c4.93,11,8.68,22.83,12.31,34.37,3.28,10.42,5.86,20.86,8.56,31.42,2.13,8.31,2,17.29,4.85,25.3,2.9,8.23,0,13.14-5.43,18.36-5.16,5-9.57,10.62-11.1,18-3.18,15.26,2.52,27.66,12.43,38.73,2,2.22,4,4.45,5.73,6.84,6.61,9,13,18.11,19.72,27,4.32,5.67,9.77,10.56,13.63,16.5,8.54,13.14,5.62,24.22-7.81,32.38-4.55,2.76-9.29,5.2-13.8,8-13.51,8.44-17.91,24.17-10.91,38.52,5.72,11.74-.37,23.68-13.25,26-1.2.21-2.38.47-4.33.85,2.83,3.58,5.43,6.36,7.44,9.51,6.67,10.44,3.33,18.67-8.5,21.44-7.61,1.78-10.44,9.27-6,15.72,1.42,2,2.85,4.1,4.15,6.22,15.24,25,2.38,50.72-20.17,57.88-13.8,4.38-27.71,5.1-41.76,5.36-23.1.43-46.25-.26-69.12,3.93-20.94,3.83-37.36,15-50.49,31.41A8.2,8.2,0,0,0,40,558Z"/>
</svg>