<svg xmlns="http://www.w3.org/2000/svg" xmlns:xlink="http://www.w3.org/1999/xlink" x="0px" y="0px" viewBox="0 0 970 288.6">
<style type="text/css">
	.bl0{fill:#595652;}
	.bl1{fill:#C14E45;}
	.bl2{fill:url(#XMLID_23_);}
	.bl3{fill:url(#XMLID_24_);}
	.bl4{fill:url(#XMLID_25_);}
	.bl5{fill:url(#XMLID_26_);}
	.bl6{fill:url(#XMLID_27_);}
	.bl7{fill:url(#XMLID_28_);}
	.bl8{fill:url(#XMLID_29_);}
	.bl9{fill:url(#XMLID_30_);}
	.bl10{fill:url(#XMLID_32_);}
	.bl11{fill:url(#XMLID_33_);}
	.bl12{fill:url(#XMLID_34_);}
	.bl13{fill:url(#XMLID_38_);}
	.bl14{fill:url(#XMLID_39_);}
	.bl15{fill:url(#XMLID_40_);}
	.bl16{fill:url(#XMLID_41_);}
	.bl17{fill:url(#XMLID_42_);}
	.bl18{fill:url(#XMLID_43_);}
	.bl19{fill:url(#XMLID_44_);}
	.bl20{fill:url(#XMLID_45_);}
	.bl21{fill:url(#XMLID_48_);}
	.bl22{fill:url(#XMLID_49_);}
	.bl23{fill:url(#XMLID_50_);}
	.bl24{fill:url(#XMLID_64_);}
	.bl25{fill:url(#XMLID_65_);}
	.bl26{fill:url(#XMLID_69_);}
	.bl27{fill:url(#XMLID_70_);}
	.bl28{fill:url(#XMLID_71_);}
	.bl29{fill:url(#XMLID_72_);}
	.bl30{fill:url(#XMLID_73_);}
	.bl31{fill:url(#XMLID_74_);}
	.bl32{fill:url(#XMLID_77_);}
	.bl33{fill:url(#XMLID_78_);}
	.bl34{fill:url(#XMLID_83_);}
	.bl35{fill:#5D5A56;}
	.bl36{fill:#5D5A55;}
</style>
<path class="bl0" d="M270.1,198.4h3.4v22.4l15-22.4h3.8v28.3h-3.4v-22.3l-15.1,22.3h-3.7V198.4z"/>
<path class="bl0" d="M303.3,226.7v-28.3h3.7V210h14.7v-11.6h3.7v28.3h-3.7v-13.3h-14.7v13.3H303.3z"/>
<path class="bl0" d="M336.3,226.7v-28.3h10.6c2.2,0,3.9,0.3,5.2,0.9c1.3,0.6,2.3,1.5,3.1,2.6
	c0.7,1.2,1.1,2.4,1.1,3.7c0,1.2-0.3,2.3-1,3.4c-0.7,1.1-1.6,1.9-3,2.6c1.7,0.5,3,1.4,3.9,2.6s1.4,2.6,1.4,4.3
	c0,1.3-0.3,2.6-0.8,3.7c-0.6,1.1-1.3,2-2.1,2.6c-0.8,0.6-1.9,1.1-3.1,1.4c-1.2,0.3-2.8,0.5-4.6,0.5H336.3z M340.1,210.3h6.1
	c1.7,0,2.8-0.1,3.6-0.3c1-0.3,1.7-0.8,2.2-1.4c0.5-0.7,0.7-1.5,0.7-2.5c0-0.9-0.2-1.8-0.7-2.5c-0.5-0.7-1.1-1.2-1.9-1.5
	c-0.8-0.3-2.3-0.4-4.3-0.4h-5.7V210.3z M340.1,223.4h7c1.2,0,2.1,0,2.5-0.1c0.9-0.2,1.6-0.4,2.2-0.8c0.6-0.4,1.1-0.9,1.4-1.6
	c0.4-0.7,0.6-1.5,0.6-2.4c0-1.1-0.3-2-0.8-2.7c-0.5-0.8-1.3-1.3-2.2-1.6c-1-0.3-2.3-0.5-4.1-0.5h-6.5V223.4z"/>
<path class="bl0" d="M367.6,226.7v-28.3h20.4v3.3h-16.7v8.7H387v3.3h-15.6v9.6h17.4v3.3H367.6z"/>
<path class="bl0" d="M418.8,216.8l3.7,0.9c-0.8,3.1-2.2,5.4-4.2,7c-2,1.6-4.5,2.4-7.5,2.4c-3,0-5.5-0.6-7.4-1.9
	c-1.9-1.2-3.4-3-4.4-5.4c-1-2.4-1.5-4.9-1.5-7.6c0-2.9,0.6-5.5,1.7-7.7s2.7-3.9,4.8-5c2.1-1.1,4.4-1.7,6.9-1.7
	c2.8,0,5.2,0.7,7.1,2.2s3.3,3.5,4,6.1l-3.7,0.9c-0.7-2.1-1.6-3.6-2.9-4.5c-1.2-0.9-2.8-1.4-4.7-1.4c-2.2,0-4,0.5-5.4,1.6
	c-1.5,1-2.5,2.4-3.1,4.2c-0.6,1.8-0.9,3.6-0.9,5.4c0,2.4,0.3,4.5,1.1,6.3c0.7,1.8,1.8,3.1,3.3,4c1.5,0.9,3.1,1.3,4.8,1.3
	c2.1,0,3.9-0.6,5.3-1.8S418.3,219.2,418.8,216.8z"/>
<path class="bl0" d="M437.8,226.7v-24.9h-9.3v-3.3h22.4v3.3h-9.4v24.9H437.8z"/>
<path class="bl0" d="M459.5,198.4h3.4v22.4l15-22.4h3.8v28.3h-3.4v-22.3l-15.1,22.3h-3.7V198.4z"/>
<path class="bl0" d="M492.6,198.4h3.7v24.9h14.7v-24.9h3.8v24.9h2.6v11.2h-3.3v-7.9h-21.5V198.4z"/>
<path class="bl0" d="M526.6,198.4h3.4v22.4l15-22.4h3.8v28.3h-3.4v-22.3l-15.1,22.3h-3.7V198.4z"/>
<path class="bl0" d="M559.8,198.4h3.4v22.4l15-22.4h3.8v28.3h-3.4v-22.3l-15.1,22.3h-3.7V198.4z"/>
<path class="bl0" d="M608.4,226.7v-28.3H619c2.2,0,3.9,0.3,5.2,0.9c1.3,0.6,2.3,1.5,3.1,2.6
	c0.7,1.2,1.1,2.4,1.1,3.7c0,1.2-0.3,2.3-1,3.4s-1.6,1.9-3,2.6c1.7,0.5,3,1.4,3.9,2.6c0.9,1.2,1.4,2.6,1.4,4.3
	c0,1.3-0.3,2.6-0.8,3.7c-0.6,1.1-1.3,2-2.1,2.6c-0.8,0.6-1.9,1.1-3.1,1.4c-1.2,0.3-2.8,0.5-4.6,0.5H608.4z M612.1,210.3h6.1
	c1.7,0,2.8-0.1,3.6-0.3c1-0.3,1.7-0.8,2.2-1.4c0.5-0.7,0.7-1.5,0.7-2.5c0-0.9-0.2-1.8-0.7-2.5c-0.5-0.7-1.1-1.2-1.9-1.5
	c-0.8-0.3-2.3-0.4-4.3-0.4h-5.7V210.3z M612.1,223.4h7c1.2,0,2.1,0,2.5-0.1c0.9-0.2,1.6-0.4,2.2-0.8c0.6-0.4,1.1-0.9,1.4-1.6
	c0.4-0.7,0.6-1.5,0.6-2.4c0-1.1-0.3-2-0.8-2.7c-0.5-0.8-1.3-1.3-2.2-1.6c-1-0.3-2.3-0.5-4.1-0.5h-6.5V223.4z"/>
<path class="bl0" d="M655.5,198.4h18.3v3.3h-14.6v8.7h6.8c2.5,0,4.5,0.2,6,0.7c1.5,0.5,2.7,1.4,3.5,2.7
	c0.9,1.3,1.3,2.9,1.3,4.6c0,1.4-0.3,2.8-1,4c-0.6,1.2-1.6,2.3-2.8,3c-1.3,0.8-3.4,1.2-6.4,1.2h-11.1V198.4z M659.3,223.5h7.5
	c2,0,3.5-0.4,4.5-1.2c1-0.8,1.5-2.1,1.5-3.7c0-1.2-0.3-2.1-0.9-2.9c-0.6-0.8-1.4-1.3-2.4-1.6c-1-0.3-2.8-0.4-5.3-0.4h-5V223.5z"/>
<path class="bl0" d="M682.3,198.4h3.8l9.2,17.3l8.1-17.3h3.7l-10.6,22c-1.3,2.8-2.4,4.6-3.3,5.4
	c-0.8,0.8-2.1,1.3-3.6,1.3c-1,0-2.1-0.2-3.5-0.7v-3.2c1,0.6,2.1,0.9,3.2,0.9c0.9,0,1.7-0.3,2.4-0.9c0.7-0.6,1.4-1.9,2.2-4
	L682.3,198.4z"/>
<path class="bl0" d="M715.7,198.4H733v24.9h2.5v9.9h-3.3v-6.6h-18.7v6.6h-3.3v-9.9h2.2c2.3-3.4,3.4-10.4,3.4-20.8
	V198.4z M729.2,201.8h-9.9v1.4c0,2.4-0.2,5.7-0.6,9.9c-0.4,4.2-1.3,7.6-2.5,10.3h13V201.8z"/>
<path class="bl0" d="M742.3,198.4h3.8l9.2,17.3l8.1-17.3h3.7l-10.6,22c-1.3,2.8-2.4,4.6-3.3,5.4
	c-0.8,0.8-2.1,1.3-3.6,1.3c-1,0-2.1-0.2-3.5-0.7v-3.2c1,0.6,2.1,0.9,3.2,0.9c0.9,0,1.7-0.3,2.4-0.9c0.7-0.6,1.4-1.9,2.2-4
	L742.3,198.4z"/>
<path class="bl0" d="M775,198.4h3.7v24.9h9.4v-24.9h3.7v24.9h9.4v-24.9h3.7v24.9h2.6v11.2h-3.3v-7.9H775V198.4z"/>
<path class="bl0" d="M816.8,226.7v-28.3h20.4v3.3h-16.7v8.7h15.6v3.3h-15.6v9.6h17.4v3.3H816.8z"/>
<path class="bl0" d="M847.9,226.7v-28.3h20.4v3.3h-16.7v8.7h15.6v3.3h-15.6v9.6H869v3.3H847.9z"/>
<path class="bl1" d="M116.3,25.4c-2.4-1.1-5.1-1.4-7.6-0.9C111.2,24.1,113.8,24.4,116.3,25.4z"/>
<polygon class="bl1" points="58.4,88.9 58.4,88.9 58.4,88.9 "/>
<path class="bl1" d="M167,72.5v10.6C167,80.2,167,75.4,167,72.5z"/>
<path class="bl1" d="M56,191.9v0.4c0,1.2,0.4,2.4,1.3,3.2l44,37l-43.6-36.7C56.5,194.7,56,193.4,56,191.9z"/>
<path class="bl1" d="M161.4,60c1.2,0.1,2.3,0.4,3.3,0.9C163.7,60.4,162.6,60.1,161.4,60C161.4,60,161.4,60,161.4,60z
	"/>
<path class="bl1" d="M156.3,60.6c0.1,0,0.2,0,0.2,0C156.5,60.6,156.4,60.6,156.3,60.6z"/>
<path class="bl1" d="M100,30.1c0.1-0.1,0.1-0.2,0.2-0.3c0,0.1-0.1,0.1-0.1,0.2l-31,44l47.2,35.7l33.9-45.1
	c0,0,0,0,0,0"/>
<path class="bl1" d="M167,83.7v8.5C167,90.3,167,88.1,167,83.7z"/>
<path class="bl1" d="M167.3,70.3c0.1,0.5,0.2,1,0.2,1.5c0,0,0,0,0-0.1C167.5,71.2,167.4,70.7,167.3,70.3z"/>
<path class="bl1" d="M158.7,61.2c-0.3-0.2-0.8-0.4-1.5-0.5C157.7,60.8,158.2,61,158.7,61.2z"/>
<path class="bl1" d="M167,69.3c0-0.1-0.1-0.1-0.1-0.2C166.9,69.1,167,69.2,167,69.3z"/>
<path class="bl1" d="M161.6,63.4c-0.2-0.2-0.5-0.4-0.7-0.6L161.6,63.4z"/>
<path class="bl1" d="M167.2,70c0-0.1-0.1-0.3-0.1-0.4C167.2,69.8,167.2,69.9,167.2,70z"/>
<path class="bl1" d="M56.5,91.8c0-0.1,0.1-0.2,0.1-0.2C56.6,91.6,56.6,91.7,56.5,91.8z"/>
<path class="bl1" d="M157.2,60.7c-0.1,0-0.2,0-0.3,0C157,60.7,157.1,60.7,157.2,60.7z"/>
<path class="bl1" d="M56,93.2c0-0.1,0-0.2,0.1-0.2C56.1,93,56.1,93.1,56,93.2z"/>
<path class="bl1" d="M163.6,65.2c-0.7-0.6-1.4-1.2-2-1.7L163.6,65.2z"/>
<path class="bl1" d="M167.2,62.1l0.8,0.6c0,0,23.5,17.1,38.3,27.8c0,0,0,0,0,0l-39.3-28.6l-0.4-0.2
	C166.7,61.8,167,61.9,167.2,62.1z"/>
<path class="bl2" d="M156.9,60.7c-0.1,0-0.2,0-0.3,0C156.7,60.6,156.8,60.6,156.9,60.7z"/>
<path class="bl3" d="M157.2,60.7C157.2,60.7,157.2,60.7,157.2,60.7C157.2,60.7,157.2,60.7,157.2,60.7z"/>
<path class="bl4" d="M167.3,70.3c0-0.1,0-0.2-0.1-0.2C167.3,70.1,167.3,70.2,167.3,70.3z"/>
<polygon class="bl5" points="161.6,63.5 161.6,63.5 161.6,63.4 "/>
<path class="bl6" d="M167.1,69.6c0-0.1-0.1-0.2-0.1-0.4C167,69.4,167.1,69.5,167.1,69.6z"/>
<path class="bl7" d="M155.9,60.6C155.9,60.6,155.9,60.6,155.9,60.6c0.1,0,0.3,0,0.4,0
	C156.2,60.6,156,60.6,155.9,60.6z"/>
<path class="bl8" d="M167.5,71.8c0,0.2,0,0.5,0,0.7L167.5,71.8C167.5,71.8,167.5,71.8,167.5,71.8z"/>
<path class="bl9" d="M158.7,61.2c0.1,0,0.1,0.1,0.1,0.1c0.7,0.4,1.4,1,2,1.5l-1-0.8
	C159.5,61.7,159.1,61.4,158.7,61.2z"/>

<linearGradient id="XMLID_23_" gradientUnits="userSpaceOnUse" x1="138.6685" y1="82.1414" x2="162.6044" y2="53.6157">
	<stop  offset="7.389162e-002" style="stop-color:#C14E45;stop-opacity:0.1"/>
	<stop  offset="0.1366" style="stop-color:#B14D45;stop-opacity:0.3122"/>
	<stop  offset="0.2512" style="stop-color:#964B46;stop-opacity:0.7"/>
	<stop  offset="0.2536" style="stop-color:#954B46;stop-opacity:0.7015"/>
	<stop  offset="0.331" style="stop-color:#824645;stop-opacity:0.7512"/>
	<stop  offset="0.4196" style="stop-color:#744344;stop-opacity:0.808"/>
	<stop  offset="0.529" style="stop-color:#6B4244;stop-opacity:0.8781"/>
	<stop  offset="0.7192" style="stop-color:#694144"/>
</linearGradient>
<linearGradient id="XMLID_24_" gradientUnits="userSpaceOnUse" x1="138.9935" y1="82.4142" x2="162.9294" y2="53.8884">
	<stop  offset="7.389162e-002" style="stop-color:#C14E45;stop-opacity:0.1"/>
	<stop  offset="0.1366" style="stop-color:#B14D45;stop-opacity:0.3122"/>
	<stop  offset="0.2512" style="stop-color:#964B46;stop-opacity:0.7"/>
	<stop  offset="0.2536" style="stop-color:#954B46;stop-opacity:0.7015"/>
	<stop  offset="0.331" style="stop-color:#824645;stop-opacity:0.7512"/>
	<stop  offset="0.4196" style="stop-color:#744344;stop-opacity:0.808"/>
	<stop  offset="0.529" style="stop-color:#6B4244;stop-opacity:0.8781"/>
	<stop  offset="0.7192" style="stop-color:#694144"/>
</linearGradient>
<linearGradient id="XMLID_25_" gradientUnits="userSpaceOnUse" x1="149.55" y1="91.2722" x2="173.486" y2="62.7464">
	<stop  offset="7.389162e-002" style="stop-color:#C14E45;stop-opacity:0.1"/>
	<stop  offset="0.1366" style="stop-color:#B14D45;stop-opacity:0.3122"/>
	<stop  offset="0.2512" style="stop-color:#964B46;stop-opacity:0.7"/>
	<stop  offset="0.2536" style="stop-color:#954B46;stop-opacity:0.7015"/>
	<stop  offset="0.331" style="stop-color:#824645;stop-opacity:0.7512"/>
	<stop  offset="0.4196" style="stop-color:#744344;stop-opacity:0.808"/>
	<stop  offset="0.529" style="stop-color:#6B4244;stop-opacity:0.8781"/>
	<stop  offset="0.7192" style="stop-color:#694144"/>
</linearGradient>
<linearGradient id="XMLID_26_" gradientUnits="userSpaceOnUse" x1="161.3743" y1="63.7195" x2="161.8259" y2="63.1813">
	<stop  offset="7.389162e-002" style="stop-color:#C14E45;stop-opacity:0.1"/>
	<stop  offset="0.1366" style="stop-color:#B14D45;stop-opacity:0.3122"/>
	<stop  offset="0.2512" style="stop-color:#964B46;stop-opacity:0.7"/>
	<stop  offset="0.2536" style="stop-color:#954B46;stop-opacity:0.7015"/>
	<stop  offset="0.331" style="stop-color:#824645;stop-opacity:0.7512"/>
	<stop  offset="0.4196" style="stop-color:#744344;stop-opacity:0.808"/>
	<stop  offset="0.529" style="stop-color:#6B4244;stop-opacity:0.8781"/>
	<stop  offset="0.7192" style="stop-color:#694144"/>
</linearGradient>
<linearGradient id="XMLID_27_" gradientUnits="userSpaceOnUse" x1="149.0783" y1="90.8763" x2="173.0143" y2="62.3506">
	<stop  offset="7.389162e-002" style="stop-color:#C14E45;stop-opacity:0.1"/>
	<stop  offset="0.1366" style="stop-color:#B14D45;stop-opacity:0.3122"/>
	<stop  offset="0.2512" style="stop-color:#964B46;stop-opacity:0.7"/>
	<stop  offset="0.2536" style="stop-color:#954B46;stop-opacity:0.7015"/>
	<stop  offset="0.331" style="stop-color:#824645;stop-opacity:0.7512"/>
	<stop  offset="0.4196" style="stop-color:#744344;stop-opacity:0.808"/>
	<stop  offset="0.529" style="stop-color:#6B4244;stop-opacity:0.8781"/>
	<stop  offset="0.7192" style="stop-color:#694144"/>
</linearGradient>
<linearGradient id="XMLID_28_" gradientUnits="userSpaceOnUse" x1="138.2938" y1="81.8271" x2="162.2298" y2="53.3013">
	<stop  offset="7.389162e-002" style="stop-color:#C14E45;stop-opacity:0.1"/>
	<stop  offset="0.1366" style="stop-color:#B14D45;stop-opacity:0.3122"/>
	<stop  offset="0.2512" style="stop-color:#964B46;stop-opacity:0.7"/>
	<stop  offset="0.2536" style="stop-color:#954B46;stop-opacity:0.7015"/>
	<stop  offset="0.331" style="stop-color:#824645;stop-opacity:0.7512"/>
	<stop  offset="0.4196" style="stop-color:#744344;stop-opacity:0.808"/>
	<stop  offset="0.529" style="stop-color:#6B4244;stop-opacity:0.8781"/>
	<stop  offset="0.7192" style="stop-color:#694144"/>
</linearGradient>
<linearGradient id="XMLID_29_" gradientUnits="userSpaceOnUse" x1="150.6346" y1="92.1822" x2="174.5706" y2="63.6564">
	<stop  offset="7.389162e-002" style="stop-color:#C14E45;stop-opacity:0.1"/>
	<stop  offset="0.1366" style="stop-color:#B14D45;stop-opacity:0.3122"/>
	<stop  offset="0.2512" style="stop-color:#964B46;stop-opacity:0.7"/>
	<stop  offset="0.2536" style="stop-color:#954B46;stop-opacity:0.7015"/>
	<stop  offset="0.331" style="stop-color:#824645;stop-opacity:0.7512"/>
	<stop  offset="0.4196" style="stop-color:#744344;stop-opacity:0.808"/>
	<stop  offset="0.529" style="stop-color:#6B4244;stop-opacity:0.8781"/>
	<stop  offset="0.7192" style="stop-color:#694144"/>
</linearGradient>
<linearGradient id="XMLID_30_" gradientUnits="userSpaceOnUse" x1="141.1446" y1="84.2191" x2="165.0806" y2="55.6934">
	<stop  offset="7.389162e-002" style="stop-color:#C14E45;stop-opacity:0.1"/>
	<stop  offset="0.1366" style="stop-color:#B14D45;stop-opacity:0.3122"/>
	<stop  offset="0.2512" style="stop-color:#964B46;stop-opacity:0.7"/>
	<stop  offset="0.2536" style="stop-color:#954B46;stop-opacity:0.7015"/>
	<stop  offset="0.331" style="stop-color:#824645;stop-opacity:0.7512"/>
	<stop  offset="0.4196" style="stop-color:#744344;stop-opacity:0.808"/>
	<stop  offset="0.529" style="stop-color:#6B4244;stop-opacity:0.8781"/>
	<stop  offset="0.7192" style="stop-color:#694144"/>
</linearGradient>
<linearGradient id="XMLID_32_" gradientUnits="userSpaceOnUse" x1="146.8618" y1="89.0164" x2="170.7978" y2="60.4907">
	<stop  offset="7.389162e-002" style="stop-color:#C14E45;stop-opacity:0.1"/>
	<stop  offset="0.1366" style="stop-color:#B14D45;stop-opacity:0.3122"/>
	<stop  offset="0.2512" style="stop-color:#964B46;stop-opacity:0.7"/>
	<stop  offset="0.2536" style="stop-color:#954B46;stop-opacity:0.7015"/>
	<stop  offset="0.331" style="stop-color:#824645;stop-opacity:0.7512"/>
	<stop  offset="0.4196" style="stop-color:#744344;stop-opacity:0.808"/>
	<stop  offset="0.529" style="stop-color:#6B4244;stop-opacity:0.8781"/>
	<stop  offset="0.7192" style="stop-color:#694144"/>
</linearGradient>
<path class="bl10" d="M164.9,66.3l-1.3-1.1c0.7,0.6,1.5,1.3,2.1,2c0.5,0.5,0.9,1.1,1.2,1.9
	C166.5,68,165.8,67,164.9,66.3z"/>
<path class="bl1" d="M213.4,101.1c0-0.3-0.1-0.6-0.1-0.8c0-0.3-0.1-0.5-0.1-0.8c0-0.1,0-0.3-0.1-0.4
	c-0.2-0.8-0.5-1.6-0.9-2.4c-0.3-0.6-0.6-1.1-0.9-1.5c-0.1-0.2-0.2-0.3-0.3-0.5c-0.1-0.2-0.2-0.3-0.3-0.5c-0.1-0.1-0.2-0.3-0.4-0.4
	c-0.1-0.1-0.2-0.2-0.3-0.3c-0.7-0.7-1.5-1.4-2.4-2l-1.4-1c0,0,0,0,0,0c-14.8-10.7-38.3-27.8-38.3-27.8l-0.8-0.6
	c-0.2-0.1-0.4-0.2-0.6-0.4l-1.1-0.5c-0.2-0.1-0.5-0.2-0.7-0.3c-1-0.4-2.1-0.7-3.3-0.9c-1.8-0.2-3.7,0-5.5,0.6c0.1,0,0.3,0,0.4,0
	c0.1,0,0.2,0,0.2,0c0.1,0,0.2,0,0.3,0c0.1,0,0.2,0,0.3,0c0,0,0,0,0.1,0c0.7,0.1,1.2,0.3,1.5,0.5c0.4,0.2,0.8,0.5,1.2,0.8l1,0.8
	c0.3,0.2,0.6,0.5,0.7,0.6l0,0c0.6,0.5,1.3,1.1,2,1.7l1.3,1.1c0.9,0.8,1.6,1.7,2,2.8c0,0.1,0.1,0.1,0.1,0.2c0,0.1,0.1,0.2,0.1,0.4
	c0,0.1,0.1,0.3,0.1,0.4c0.1,0.5,0.2,1.8-0.2,1.7c0,0,0,0,0,0v0.7c0,2.9,0,7.6,0,10.6v0.6c0,4.4,0,6.7,0,8.5v2c0,2.9-1.7,5.6-4.5,6.4
	l-0.3,0.1c-0.4,0.1-0.7,0.2-1.1,0.3c12.6,8,45.1,37.7,45.2,37.8c0.2-0.1,0.3-0.1,0.5-0.2c1.5-0.7,6.3-3.5,6.7-10.2
	c0-0.1,0-0.1,0-0.2c0-1.3-0.2-16.1,0-25.4c0-0.4,0-0.8,0-1.1C213.4,101.5,213.4,101.3,213.4,101.1z"/>
<path class="bl1" d="M206.3,138.8c-0.1-0.1-22.7-28.3-45.2-37.8L115,114.1l45.4,37.4l44.8-12.3L206.3,138.8z"/>
<linearGradient id="XMLID_33_" gradientUnits="userSpaceOnUse" x1="172.7786" y1="110.6333" x2="196.6479" y2="82.187">
	<stop  offset="7.389162e-002" style="stop-color:#C14E45;stop-opacity:0.1"/>
	<stop  offset="0.1366" style="stop-color:#B14D45;stop-opacity:0.3122"/>
	<stop  offset="0.2512" style="stop-color:#964B46;stop-opacity:0.7"/>
	<stop  offset="0.2536" style="stop-color:#954B46;stop-opacity:0.7015"/>
	<stop  offset="0.331" style="stop-color:#824645;stop-opacity:0.7512"/>
	<stop  offset="0.4196" style="stop-color:#744344;stop-opacity:0.808"/>
	<stop  offset="0.529" style="stop-color:#6B4244;stop-opacity:0.8781"/>
	<stop  offset="0.7192" style="stop-color:#694144"/>
</linearGradient>
<path class="bl11" d="M206.3,138.8c0.2-0.1,0.3-0.1,0.5-0.2c1.5-0.7,6.3-3.5,6.7-10.2c0-0.1,0-0.1,0-0.2
	c0-1.3-0.2-16.1,0-25.4c0-0.4,0-0.8,0-1.1c0-0.2,0-0.4,0-0.6c0-0.3-0.1-0.6-0.1-0.8c0-0.3-0.1-0.5-0.1-0.8c0-0.1,0-0.3-0.1-0.4
	c-0.2-0.8-0.5-1.6-0.9-2.4c-0.3-0.6-0.6-1.1-0.9-1.5c-0.1-0.2-0.2-0.3-0.3-0.5c-0.1-0.2-0.2-0.3-0.3-0.5c-0.1-0.1-0.2-0.3-0.4-0.4
	c-0.1-0.1-0.2-0.2-0.3-0.3c-0.7-0.7-1.5-1.4-2.4-2l-1.4-1c0,0,0,0,0,0c-14.8-10.7-38.3-27.8-38.3-27.8l-0.8-0.6
	c-0.2-0.1-0.4-0.2-0.6-0.4l-1.1-0.5c-0.2-0.1-0.5-0.2-0.7-0.3c-1-0.4-2.1-0.7-3.3-0.9c-1.8-0.2-3.7,0-5.5,0.6c0.1,0,0.3,0,0.4,0
	c0.1,0,0.2,0,0.2,0c0.1,0,0.2,0,0.3,0c0.1,0,0.2,0,0.3,0c0,0,0,0,0.1,0c0.7,0.1,1.2,0.3,1.5,0.5c0.4,0.2,0.8,0.5,1.2,0.8l1,0.8
	c0.3,0.2,0.6,0.5,0.7,0.6l0,0c0.6,0.5,1.3,1.1,2,1.7l1.3,1.1c0.4,0.4,1.4,1.6,1.8,2.9c0.4,1.3,0.3,2.6,0.3,2.6c0,0,0,0.7,0,0.7
	c0,2.9,0,7.6,0,10.6v0.6c0,4.4,0,6.7,0,8.5v2c0,2.9-1.7,5.6-4.5,6.4l-0.3,0.1"/>
<path class="bl1" d="M206.3,138.8C206.3,138.8,206.3,138.8,206.3,138.8"/>
<linearGradient id="XMLID_34_" gradientUnits="userSpaceOnUse" x1="148.7247" y1="68.5659" x2="158.2377" y2="55.4723">
	<stop  offset="7.389162e-002" style="stop-color:#C14E45;stop-opacity:0"/>
	<stop  offset="0.4998" style="stop-color:#844544;stop-opacity:0.66"/>
	<stop  offset="0.7192" style="stop-color:#694144"/>
</linearGradient>
<path class="bl12" d="M154.2,60.9c0,0,0.1,0,0.1,0C154.3,60.9,154.3,60.9,154.2,60.9z"/>
<linearGradient id="XMLID_38_" gradientUnits="userSpaceOnUse" x1="100.049" y1="33.2009" x2="109.562" y2="20.1073">
	<stop  offset="7.389162e-002" style="stop-color:#C14E45;stop-opacity:0"/>
	<stop  offset="0.4998" style="stop-color:#844544;stop-opacity:0.66"/>
	<stop  offset="0.7192" style="stop-color:#694144"/>
</linearGradient>
<path class="bl13" d="M108.7,24.5c-3.3,0.6-6.4,2.4-8.5,5.3C102.3,26.9,105.4,25.1,108.7,24.5z"/>
<linearGradient id="XMLID_39_" gradientUnits="userSpaceOnUse" x1="132.2564" y1="56.601" x2="141.7695" y2="43.5074">
	<stop  offset="7.389162e-002" style="stop-color:#C14E45;stop-opacity:0"/>
	<stop  offset="0.4998" style="stop-color:#844544;stop-opacity:0.66"/>
	<stop  offset="0.7192" style="stop-color:#694144"/>
</linearGradient>
<path class="bl14" d="M166.9,61.9L166.9,61.9l-48.1-35c-0.8-0.6-1.7-1.1-2.6-1.4c0.8,0.4,1.6,0.8,2.3,1.3
	L166.9,61.9z"/>
<path class="bl1" d="M155.9,60.6c-0.1,0-0.1,0-0.2,0C155.7,60.6,155.8,60.6,155.9,60.6z"/>
<linearGradient id="XMLID_40_" gradientUnits="userSpaceOnUse" x1="149.5384" y1="69.1571" x2="159.0515" y2="56.0635">
	<stop  offset="7.389162e-002" style="stop-color:#C14E45;stop-opacity:0"/>
	<stop  offset="0.4998" style="stop-color:#844544;stop-opacity:0.66"/>
	<stop  offset="0.7192" style="stop-color:#694144"/>
</linearGradient>
<path class="bl15" d="M155.9,60.6c-0.1,0-0.1,0-0.2,0C155.7,60.6,155.8,60.6,155.9,60.6z"/>
<path class="bl1" d="M154.2,60.9C154.2,60.9,154.1,60.9,154.2,60.9C154.2,60.9,154.2,60.9,154.2,60.9
	c0.1,0,0.2-0.1,0.2-0.1c2.6-0.9,4.9-1.1,7-0.9c0,0,0,0,0.1,0c1.1,0.1,2.2,0.4,3.3,0.8c0.6,0.2,1.2,0.5,1.8,0.8l0.4,0.2l-48.3-35.1
	c-0.7-0.5-1.5-1-2.3-1.3c-2.5-1.1-5.1-1.4-7.6-0.9c-3.3,0.6-6.4,2.4-8.5,5.3c-0.1,0.1-0.1,0.2-0.2,0.3l-1.4,2l49.2,35.7l2.5-3.3
	c0,0,0,0,0,0l1.2-1.6C152.2,62,153.1,61.3,154.2,60.9z"/>
<linearGradient id="XMLID_41_" gradientUnits="userSpaceOnUse" x1="128.0036" y1="53.5111" x2="137.5166" y2="40.4175">
	<stop  offset="7.389162e-002" style="stop-color:#C14E45;stop-opacity:0"/>
	<stop  offset="0.4998" style="stop-color:#844544;stop-opacity:0.66"/>
	<stop  offset="0.7192" style="stop-color:#694144"/>
</linearGradient>
<path class="bl16" d="M154.2,60.9C154.2,60.9,154.1,60.9,154.2,60.9C154.2,60.9,154.2,60.9,154.2,60.9
	c0.1,0,0.2-0.1,0.2-0.1c2.6-0.9,4.9-1.1,7-0.9c0,0,0,0,0.1,0c1.1,0.1,2.2,0.4,3.3,0.8c0.6,0.2,1.2,0.5,1.8,0.8l0.4,0.2l-48.3-35.1
	c-0.7-0.5-1.5-1-2.3-1.3c-2.5-1.1-5.1-1.4-7.6-0.9c-3.3,0.6-6.4,2.4-8.5,5.3c-0.1,0.1-0.1,0.2-0.2,0.3l-1.4,2l49.2,35.7l2.5-3.3
	c0,0,0,0,0,0l1.2-1.6C152.2,62,153.1,61.3,154.2,60.9z"/>
<path class="bl1" d="M155,60.7C155,60.7,155,60.7,155,60.7C155,60.7,155,60.7,155,60.7z"/>
<linearGradient id="XMLID_42_" gradientUnits="userSpaceOnUse" x1="149.0787" y1="68.8231" x2="158.5918" y2="55.7295">
	<stop  offset="7.389162e-002" style="stop-color:#C14E45;stop-opacity:0"/>
	<stop  offset="0.4998" style="stop-color:#844544;stop-opacity:0.66"/>
	<stop  offset="0.7192" style="stop-color:#694144"/>
</linearGradient>
<path class="bl17" d="M155,60.7C155,60.7,155,60.7,155,60.7C155,60.7,155,60.7,155,60.7z"/>
<linearGradient id="XMLID_43_" gradientUnits="userSpaceOnUse" x1="137.4943" y1="81.1562" x2="161.4303" y2="52.6304">
	<stop  offset="7.389162e-002" style="stop-color:#C14E45;stop-opacity:0.1"/>
	<stop  offset="0.1366" style="stop-color:#B14D45;stop-opacity:0.3122"/>
	<stop  offset="0.2512" style="stop-color:#964B46;stop-opacity:0.7"/>
	<stop  offset="0.2536" style="stop-color:#954B46;stop-opacity:0.7015"/>
	<stop  offset="0.331" style="stop-color:#824645;stop-opacity:0.7512"/>
	<stop  offset="0.4196" style="stop-color:#744344;stop-opacity:0.808"/>
	<stop  offset="0.529" style="stop-color:#6B4244;stop-opacity:0.8781"/>
	<stop  offset="0.7192" style="stop-color:#694144"/>
</linearGradient>
<path class="bl18" d="M154.2,60.9C154.2,60.9,154.2,60.9,154.2,60.9c0.2-0.1,0.5-0.1,0.7-0.2
	c-0.2,0-0.4,0.1-0.6,0.1C154.3,60.9,154.3,60.9,154.2,60.9z"/>
<linearGradient id="XMLID_44_" gradientUnits="userSpaceOnUse" x1="148.86" y1="68.6642" x2="158.373" y2="55.5706">
	<stop  offset="7.389162e-002" style="stop-color:#C14E45;stop-opacity:0"/>
	<stop  offset="0.4998" style="stop-color:#844544;stop-opacity:0.66"/>
	<stop  offset="0.7192" style="stop-color:#694144"/>
</linearGradient>
<path class="bl19" d="M154.2,60.9C154.2,60.9,154.2,60.9,154.2,60.9c0.2-0.1,0.5-0.1,0.7-0.2
	c-0.2,0-0.4,0.1-0.6,0.1C154.3,60.9,154.3,60.9,154.2,60.9z"/>
<linearGradient id="XMLID_45_" gradientUnits="userSpaceOnUse" x1="138.1616" y1="81.7161" x2="162.0976" y2="53.1904">
	<stop  offset="7.389162e-002" style="stop-color:#C14E45;stop-opacity:0.1"/>
	<stop  offset="0.1366" style="stop-color:#B14D45;stop-opacity:0.3122"/>
	<stop  offset="0.2512" style="stop-color:#964B46;stop-opacity:0.7"/>
	<stop  offset="0.2536" style="stop-color:#954B46;stop-opacity:0.7015"/>
	<stop  offset="0.331" style="stop-color:#824645;stop-opacity:0.7512"/>
	<stop  offset="0.4196" style="stop-color:#744344;stop-opacity:0.808"/>
	<stop  offset="0.529" style="stop-color:#6B4244;stop-opacity:0.8781"/>
	<stop  offset="0.7192" style="stop-color:#694144"/>
</linearGradient>
<path class="bl20" d="M155.9,60.6C155.9,60.6,155.9,60.6,155.9,60.6C155.9,60.6,155.9,60.6,155.9,60.6
	C155.9,60.6,155.9,60.6,155.9,60.6z"/>
<linearGradient id="XMLID_48_" gradientUnits="userSpaceOnUse" x1="149.62" y1="69.2164" x2="159.1331" y2="56.1228">
	<stop  offset="7.389162e-002" style="stop-color:#C14E45;stop-opacity:0"/>
	<stop  offset="0.4998" style="stop-color:#844544;stop-opacity:0.66"/>
	<stop  offset="0.7192" style="stop-color:#694144"/>
</linearGradient>
<path class="bl21" d="M155.9,60.6C155.9,60.6,155.9,60.6,155.9,60.6C155.9,60.6,155.9,60.6,155.9,60.6
	C155.9,60.6,155.9,60.6,155.9,60.6z"/>
<linearGradient id="XMLID_49_" gradientUnits="userSpaceOnUse" x1="137.8654" y1="81.4676" x2="161.8014" y2="52.9418">
	<stop  offset="7.389162e-002" style="stop-color:#C14E45;stop-opacity:0.1"/>
	<stop  offset="0.1366" style="stop-color:#B14D45;stop-opacity:0.3122"/>
	<stop  offset="0.2512" style="stop-color:#964B46;stop-opacity:0.7"/>
	<stop  offset="0.2536" style="stop-color:#954B46;stop-opacity:0.7015"/>
	<stop  offset="0.331" style="stop-color:#824645;stop-opacity:0.7512"/>
	<stop  offset="0.4196" style="stop-color:#744344;stop-opacity:0.808"/>
	<stop  offset="0.529" style="stop-color:#6B4244;stop-opacity:0.8781"/>
	<stop  offset="0.7192" style="stop-color:#694144"/>
</linearGradient>
<path class="bl22" d="M155.6,60.6c-0.2,0-0.4,0-0.6,0.1C155.2,60.7,155.4,60.6,155.6,60.6z"/>
<linearGradient id="XMLID_50_" gradientUnits="userSpaceOnUse" x1="149.2856" y1="68.9734" x2="158.7986" y2="55.8798">
	<stop  offset="7.389162e-002" style="stop-color:#C14E45;stop-opacity:0"/>
	<stop  offset="0.4998" style="stop-color:#844544;stop-opacity:0.66"/>
	<stop  offset="0.7192" style="stop-color:#694144"/>
</linearGradient>
<path class="bl23" d="M155.6,60.6c-0.2,0-0.4,0-0.6,0.1C155.2,60.7,155.4,60.6,155.6,60.6z"/>
<path class="bl1" d="M154.4,60.9c0.2-0.1,0.4-0.1,0.6-0.1c0,0,0,0,0.1,0c0.2,0,0.4-0.1,0.6-0.1c0.1,0,0.1,0,0.2,0
	c0,0,0,0,0,0c1.8-0.6,3.7-0.8,5.5-0.6C159.3,59.7,157,60,154.4,60.9z"/>
<linearGradient id="XMLID_64_" gradientUnits="userSpaceOnUse" x1="139.2584" y1="82.6364" x2="163.1944" y2="54.1107">
	<stop  offset="7.389162e-002" style="stop-color:#C14E45;stop-opacity:0.1"/>
	<stop  offset="0.1366" style="stop-color:#B14D45;stop-opacity:0.3122"/>
	<stop  offset="0.2512" style="stop-color:#964B46;stop-opacity:0.7"/>
	<stop  offset="0.2536" style="stop-color:#954B46;stop-opacity:0.7015"/>
	<stop  offset="0.331" style="stop-color:#824645;stop-opacity:0.7512"/>
	<stop  offset="0.4196" style="stop-color:#744344;stop-opacity:0.808"/>
	<stop  offset="0.529" style="stop-color:#6B4244;stop-opacity:0.8781"/>
	<stop  offset="0.7192" style="stop-color:#694144"/>
</linearGradient>
<path class="bl24" d="M154.4,60.9c0.2-0.1,0.4-0.1,0.6-0.1c0,0,0,0,0.1,0c0.2,0,0.4-0.1,0.6-0.1c0.1,0,0.1,0,0.2,0
	c0,0,0,0,0,0c1.8-0.6,3.7-0.8,5.5-0.6C159.3,59.7,157,60,154.4,60.9z"/>
<linearGradient id="XMLID_65_" gradientUnits="userSpaceOnUse" x1="150.8561" y1="70.1145" x2="160.3692" y2="57.0209">
	<stop  offset="7.389162e-002" style="stop-color:#C14E45;stop-opacity:0"/>
	<stop  offset="0.4998" style="stop-color:#844544;stop-opacity:0.66"/>
	<stop  offset="0.7192" style="stop-color:#694144"/>
</linearGradient>
<path class="bl25" d="M154.4,60.9c0.2-0.1,0.4-0.1,0.6-0.1c0,0,0,0,0.1,0c0.2,0,0.4-0.1,0.6-0.1c0.1,0,0.1,0,0.2,0
	c0,0,0,0,0,0c1.8-0.6,3.7-0.8,5.5-0.6C159.3,59.7,157,60,154.4,60.9z"/>
<path class="bl1" d="M154.1,60.9C154.1,60.9,154.2,60.9,154.1,60.9c0.1,0,0.1,0,0.1,0
	C154.2,60.9,154.2,60.9,154.1,60.9z"/>
<linearGradient id="XMLID_69_" gradientUnits="userSpaceOnUse" x1="137.3229" y1="81.0124" x2="161.2589" y2="52.4866">
	<stop  offset="7.389162e-002" style="stop-color:#C14E45;stop-opacity:0.1"/>
	<stop  offset="0.1366" style="stop-color:#B14D45;stop-opacity:0.3122"/>
	<stop  offset="0.2512" style="stop-color:#964B46;stop-opacity:0.7"/>
	<stop  offset="0.2536" style="stop-color:#954B46;stop-opacity:0.7015"/>
	<stop  offset="0.331" style="stop-color:#824645;stop-opacity:0.7512"/>
	<stop  offset="0.4196" style="stop-color:#744344;stop-opacity:0.808"/>
	<stop  offset="0.529" style="stop-color:#6B4244;stop-opacity:0.8781"/>
	<stop  offset="0.7192" style="stop-color:#694144"/>
</linearGradient>
<path class="bl26" d="M154.1,60.9C154.1,60.9,154.2,60.9,154.1,60.9c0.1,0,0.1,0,0.1,0
	C154.2,60.9,154.2,60.9,154.1,60.9z"/>
<linearGradient id="XMLID_70_" gradientUnits="userSpaceOnUse" x1="148.6614" y1="68.5199" x2="158.1744" y2="55.4263">
	<stop  offset="7.389162e-002" style="stop-color:#C14E45;stop-opacity:0"/>
	<stop  offset="0.4998" style="stop-color:#844544;stop-opacity:0.66"/>
	<stop  offset="0.7192" style="stop-color:#694144"/>
</linearGradient>
<path class="bl27" d="M154.1,60.9C154.1,60.9,154.2,60.9,154.1,60.9c0.1,0,0.1,0,0.1,0
	C154.2,60.9,154.2,60.9,154.1,60.9z"/>
<path class="bl1" d="M165.4,61.1l1.1,0.5c-0.6-0.3-1.2-0.6-1.8-0.8C165,60.9,165.2,61,165.4,61.1z"/>
<linearGradient id="XMLID_71_" gradientUnits="userSpaceOnUse" x1="144.2117" y1="86.7928" x2="168.1477" y2="58.267">
	<stop  offset="7.389162e-002" style="stop-color:#C14E45;stop-opacity:0.1"/>
	<stop  offset="0.1366" style="stop-color:#B14D45;stop-opacity:0.3122"/>
	<stop  offset="0.2512" style="stop-color:#964B46;stop-opacity:0.7"/>
	<stop  offset="0.2536" style="stop-color:#954B46;stop-opacity:0.7015"/>
	<stop  offset="0.331" style="stop-color:#824645;stop-opacity:0.7512"/>
	<stop  offset="0.4196" style="stop-color:#744344;stop-opacity:0.808"/>
	<stop  offset="0.529" style="stop-color:#6B4244;stop-opacity:0.8781"/>
	<stop  offset="0.7192" style="stop-color:#694144"/>
</linearGradient>
<path class="bl28" d="M165.4,61.1l1.1,0.5c-0.6-0.3-1.2-0.6-1.8-0.8C165,60.9,165.2,61,165.4,61.1z"/>
<linearGradient id="XMLID_72_" gradientUnits="userSpaceOnUse" x1="156.3187" y1="74.0833" x2="165.8317" y2="60.9897">
	<stop  offset="7.389162e-002" style="stop-color:#C14E45;stop-opacity:0"/>
	<stop  offset="0.4998" style="stop-color:#844544;stop-opacity:0.66"/>
	<stop  offset="0.7192" style="stop-color:#694144"/>
</linearGradient>
<path class="bl29" d="M165.4,61.1l1.1,0.5c-0.6-0.3-1.2-0.6-1.8-0.8C165,60.9,165.2,61,165.4,61.1z"/>
<linearGradient id="XMLID_73_" gradientUnits="userSpaceOnUse" x1="5.2265" y1="162.692" x2="71.5139" y2="71.4552">
	<stop  offset="3.448276e-002" style="stop-color:#C14E45"/>
	<stop  offset="0.4962" style="stop-color:#844544"/>
	<stop  offset="0.734" style="stop-color:#694144"/>
	<stop  offset="1" style="stop-color:#C14E45;stop-opacity:0"/>
</linearGradient>
<path class="bl30" d="M56.1,92.9c0.1-0.4,0.3-0.8,0.4-1.1C56.4,92.2,56.2,92.5,56.1,92.9z"/>
<linearGradient id="XMLID_74_" gradientUnits="userSpaceOnUse" x1="4.9895" y1="162.5199" x2="71.277" y2="71.283">
	<stop  offset="3.448276e-002" style="stop-color:#C14E45"/>
	<stop  offset="0.4962" style="stop-color:#844544"/>
	<stop  offset="0.734" style="stop-color:#694144"/>
	<stop  offset="1" style="stop-color:#C14E45;stop-opacity:0"/>
</linearGradient>
<path class="bl31" d="M58.4,88.9c-0.7,0.8-1.3,1.7-1.7,2.7c0.2-0.4,0.4-0.8,0.7-1.1L58.4,88.9z"/>
<linearGradient id="XMLID_77_" gradientUnits="userSpaceOnUse" x1="55.2658" y1="199.2895" x2="121.5533" y2="108.0527">
	<stop  offset="3.448276e-002" style="stop-color:#C14E45"/>
	<stop  offset="0.4962" style="stop-color:#844544"/>
	<stop  offset="0.734" style="stop-color:#694144"/>
	<stop  offset="1" style="stop-color:#C14E45;stop-opacity:0"/>
</linearGradient>
<path class="bl32" d="M101,139.7c0-2.7-0.1-4.9,0.3-7.2c-0.2,1.2-0.3,2.3-0.3,3.5V139.7z"/>
<path class="bl1" d="M113.9,232.4c-5.7,2-11.3-1.1-12.6-6.5l0-41.3l64.9-22.2l46.4,36.4l-46.5-36.6l-64.8,22.3l0-33.4
	l-0.2-11.6V136c0-10.4,9.1-18.4,15.3-26.4c0.5-0.7,2.1-2.7,2.1-2.7L71,71.1L58.4,88.9l0,0c0,0,0,0,0,0l-1.1,1.5
	c-0.2,0.4-0.5,0.7-0.7,1.1c0,0.1-0.1,0.2-0.1,0.2c-0.2,0.4-0.3,0.7-0.4,1.1c0,0.1,0,0.2-0.1,0.2c-0.1,0.4,0,1.4,0,1.4s0,0.8,0,1.2
	v96.1c0,1.5,0.4,2.9,1.5,3.8l43.5,36.7v0.1c3,2.1,5.9,2.7,8.9,1.6l102.7-35.2L113.9,232.4z"/>
<linearGradient id="XMLID_78_" gradientUnits="userSpaceOnUse" x1="52.922" y1="197.2803" x2="119.8628" y2="105.1442">
	<stop  offset="3.448276e-002" style="stop-color:#C14E45"/>
	<stop  offset="0.4962" style="stop-color:#844544"/>
	<stop  offset="0.734" style="stop-color:#694144"/>
	<stop  offset="1" style="stop-color:#C14E45;stop-opacity:0"/>
</linearGradient>
<path class="bl33" d="M119.8,105.1l-49-34.1L58.4,88.9l0,0c0,0,0,0,0,0l-1.1,1.5c-0.2,0.4-0.5,0.7-0.7,1.1
	c0,0.1-0.1,0.2-0.1,0.2c-0.2,0.4-0.3,0.7-0.4,1.1c0,0.1,0,0.2-0.1,0.2c-0.1,0.4,0,2.2,0,2.7v96.1c0,1.5,0.5,2.9,1.6,3.8l43.7,36.7
	l-0.3-81.1l0-11.6v-3.6c0-6.3,3.2-11.3,5.7-14.7L119.8,105.1z"/>
<path class="bl1" d="M101,184.7v38.7c0,6.9,6.4,11.2,12.9,9l98.6-33.6l-46.4-36.4L101,184.7z"/>
<linearGradient id="XMLID_83_" gradientUnits="userSpaceOnUse" x1="115.862" y1="240.5354" x2="176.3237" y2="168.4799">
	<stop  offset="0.2808" style="stop-color:#694144"/>
	<stop  offset="0.471" style="stop-color:#6B4244;stop-opacity:0.8781"/>
	<stop  offset="0.5804" style="stop-color:#744344;stop-opacity:0.808"/>
	<stop  offset="0.669" style="stop-color:#824645;stop-opacity:0.7512"/>
	<stop  offset="0.7464" style="stop-color:#954B46;stop-opacity:0.7015"/>
	<stop  offset="0.7488" style="stop-color:#964B46;stop-opacity:0.7"/>
	<stop  offset="0.8634" style="stop-color:#B14D45;stop-opacity:0.3122"/>
	<stop  offset="0.9261" style="stop-color:#C14E45;stop-opacity:0.1"/>
</linearGradient>
<path class="bl34" d="M101,184.7v38.7c0,6.9,6.4,11.2,12.9,9l98.6-33.6l-46.4-36.4L101,184.7z"/>
<path class="bl0" d="M387.1,176.2c-9.7,0-19.3-0.2-29,0.1c-3.7,0.1-4.9-0.9-4.8-4.7c0.2-8.4,0-8.4,8.5-8.4
	c16.8,0,33.6,0,50.5,0c2.4,0,5.3,0.8,5.9-2.9c0.6-3.5,0.3-6.9-3.7-8.3c-7-2.5-14.2-4.8-21.3-7c-7.9-2.5-15.9-4.8-23.8-7.2
	c-14-4.2-18.2-11-15.7-25.4c1.2-7.2,6.6-12.4,14.1-12.5c18.8-0.3,37.6-0.1,56.4-0.2c2,0,2.8,0.6,3,2.8c0.9,10.4,1,10.4-9.4,10.4
	c-15,0-30,0-45,0c-2.6,0-5.7-0.7-6,3.3c-0.3,3.6-0.3,6.9,4.2,8.3c14.3,4.4,28.5,8.9,42.8,13.4c2.2,0.7,4.4,1.5,6.6,2.3
	c7.4,3,11.2,7.8,11,16.4c-0.5,16.7-3.1,19.7-19.9,19.7C403.4,176.2,395.3,176.2,387.1,176.2z"/>
<path class="bl0" d="M704.2,144.7c0,9-0.1,18,0.1,27c0.1,3.4-0.7,4.7-4.4,4.6c-9.1-0.1-9.1,0.1-9.1-8.8
	c0-16.8-0.1-33.6,0.1-50.5c0-3.5-0.9-4.6-4.4-4.5c-6.8,0.3-13.7-0.1-20.5,0.1c-3.2,0.1-4.3-0.7-4.3-4.1c0.1-9.1-0.1-9.1,9.2-9.1
	c19.3,0,38.6,0.1,58-0.1c3.5,0,4.5,1,4.4,4.5c-0.1,8.7,0,8.8-8.5,8.8c-5.7,0-11.3,0.1-17-0.1c-2.8-0.1-3.7,0.8-3.6,3.6
	C704.3,125.7,704.2,135.2,704.2,144.7z"/>
<path class="bl0" d="M474.3,99.5c10.3,0,20.7,0.1,31-0.1c3.4-0.1,4.1,1.1,4.1,4.2c-0.1,9,0.1,9-9.2,9
	c-4.7,0-9.4,0.3-14-0.1c-4.6-0.4-6.2,0.7-6.1,5.8c0.4,17.5,0,35,0.3,52.5c0.1,4.4-1,6.2-5.4,5.4c-1.1-0.2-2.3-0.2-3.5,0
	c-3.5,0.5-4.5-1-4.4-4.4c0.2-18.2,0-36.3,0.2-54.5c0-3.6-0.7-5-4.6-4.8c-6.8,0.3-13.7,0-20.5,0.1c-2.8,0.1-4.1-0.4-4.1-3.7
	c0-9.5-0.2-9.5,9.3-9.5C456.3,99.5,465.3,99.5,474.3,99.5z"/>
<path class="bl0" d="M888.3,112.7c-5,0-10,0.3-15-0.1c-4.4-0.4-5.1,1.3-5,5.3c0.2,17.7-0.1,35.3,0.2,53
	c0.1,4.3-0.9,6.2-5.4,5.4c-1.1-0.2-2.3-0.2-3.5,0c-3.5,0.5-4.5-1-4.4-4.4c0.2-18.2,0-36.3,0.2-54.5c0-3.6-0.7-5-4.6-4.8
	c-6.8,0.3-13.7,0-20.5,0.1c-2.8,0.1-4.1-0.3-4.1-3.7c0-9.5-0.2-9.5,9.3-9.5c8.8,0,17.7,0,26.5,0c10.5,0,21,0.1,31.5-0.1"/>
<path class="bl35" d="M527.5,144.5c-7-0.1-6,0.9-6-7.2c0-6.8-1.1-5.2,7.9-6c6.9-0.6,5.6,3.6,5.5,7.4
	C534.9,145.8,535.4,144.4,527.5,144.5z"/>
<path class="bl36" d="M645.4,144.6c-8.4-0.1-7.6,1.2-7.6-7c0-7.1-0.8-6,7.2-6c7.2,0,5.8-1,6.4,6.9
	C651.7,144.1,649.6,145.6,645.4,144.6z"/>
<path class="bl0" d="M344.3,115c-0.2-9.2-6.2-15.3-15.4-15.4c-14.3-0.1-28.4-0.1-42.7,0C274,99.7,267,107,267,119.4
	v37.5c0,12,7.1,19.1,19.1,19.2c7.7,0.1,15.1-0.1,22.8-0.1c7,0,14,0,21,0c8.1,0,7.7,0.1,8.1-7.7c0.2-4.7-1.5-5.4-5.7-5.3
	c-15.5,0.2-31,0-46.5,0.2c-4.3,0-6.2-1.5-6-5.8c0.1-1.5,0.2-3,0-4.5c-0.4-3.3,0.9-4.7,4.3-5.2c14.5-2.2,28.9-4.7,43.3-7.1
	c11.5-1.9,16.9-8.1,16.9-19.6C344.3,119,344.4,117,344.3,115z M322.2,128.8l-38.8,6.1c-2.7,0.4-3.6-0.1-3.5-2.8
	c0.2-4.3,0-8.6,0.1-13c0.1-4.5,2.3-6.6,6.9-6.4c6.5,0.2,13,0,19.4,0s13,0.1,19.4,0c3.8-0.1,5.4,1.4,5.5,5.2
	C331.4,126.4,330.6,127.5,322.2,128.8z"/>
<path class="bl0" d="M759.1,147.6c13.2-1.9,26.2-4.3,39.3-6.6c17.9-3,21.8-7.9,20.9-26.1
	c-0.5-9.6-6.3-15.4-15.9-15.4c-14.1-0.1-28.3-0.1-42.4,0c-12,0.1-19.4,7.2-19.5,19.2c-0.2,12.8-0.2,25.6,0,38.5
	c0.2,12,7.5,18.8,19.6,18.9c7.7,0.1,15.3-0.1,23-0.1c6.8,0,13.6,0,20.5,0c8.1,0,7.9,0.1,8.1-8.1c0.1-3.9-1-5-4.9-5
	c-15.8,0.2-31.6,0-47.4,0.2c-4.2,0-6-2-5.6-5.7C755,153.8,751.7,148.6,759.1,147.6z M754.5,131.2c0.1-1.8,0-3.7,0-5.5
	c0-13,0-13.1,12.9-13.1c10.6,0,21.3,0,31.9,0c3.4,0,6.3,0,6.8,4.5c0.8,6.9-0.5,10-5.5,11c-6.5,1.3-13.1,2.2-19.6,3.2
	c-7.5,1.2-15.1,2-22.6,3.6C754.6,135.7,754.2,134.2,754.5,131.2z"/>
<path class="bl0" d="M624.3,117.7c-0.1-10.4-7.2-17.6-17.7-18c-8.1-0.3-15.6-0.1-24.6-0.1c0,0,0,0.3,0,0.3
	c-6,0-13.3,0-20.1,0c-8.8,0-8.6-0.2-8.8,8.7c-0.1,3.7,1.2,4.2,4.5,4.2c14.3-0.2,28.6-0.1,43-0.1c10.8,0,10.7,0,10.7,10.6
	c0,3-0.7,4.2-4,4.7c-15.1,2.3-30.2,4.9-45.2,7.6c-9.1,1.6-14.8,7.1-15.4,14.6c-0.4,4-0.3,8,0,12c0.7,8.1,6.8,13.9,14.8,13.9
	c15,0.1,30,0.1,44.9,0c10.4-0.1,17.8-7.6,17.9-18.1C624.4,144.6,624.4,131.2,624.3,117.7z M611.2,144.3c-0.3,4,0,8-0.1,12
	c-0.1,5-2.1,6.9-7.1,6.9c-6.3,0-12.6,0-18.9,0c-6.6,0-13.3-0.1-19.9,0c-3.8,0.1-5.3-1.6-5.4-5.4c-0.2-8.6,0.3-9.4,8.6-10.8
	c12.9-2.1,25.9-4.1,38.8-6.3C610.3,140.3,611.4,141.1,611.2,144.3z"/>
<path class="bl0" d="M937.5,112.1c0,7-5.8,12.6-12.9,12.6c-7.1,0-12.9-5.7-12.9-12.6c0-7,5.8-12.7,12.9-12.7
		C931.7,99.4,937.5,105.1,937.5,112.1z M935.6,112.1c0-6.1-4.9-11.2-11-11.2c-6.1,0-11,5.1-11,11.2c0,6.1,4.9,11.2,11,11.2
		C930.7,123.3,935.6,118.2,935.6,112.1z M931.5,118l0.5,0.3c-0.4,0.7-1,1-2,1c-1.6,0-2.2-0.6-2.6-1.8l-0.8-3.4
		c-0.4-1.7-0.8-2-4.1-2.1v4.6c0,1.4,0.2,1.6,1.1,1.7v0.7c-0.6,0-1.5,0-2.3,0c-1,0-1.9,0-2.4,0v-0.7c0.9-0.1,1.1-0.3,1.1-1.7v-9.9
		c0-1.4-0.2-1.6-1.1-1.7v-0.7c0.6,0,1.4,0,2.2,0c1.7,0,3.3,0,4,0c3.5,0,5.4,1.3,5.4,3.6c0,1.6-0.9,3.2-4.5,3.9
		c2.6,0.3,3.3,1.1,3.6,2.6l0.6,2.6c0.2,0.8,0.2,1.5,0.8,1.5C931.1,118.4,931.3,118.3,931.5,118z M922.5,106.4v4.9h1.1
		c3.3,0,3.9-1.3,3.9-3c0-2.3-0.8-3.4-3.2-3.4C922.8,104.9,922.5,105.2,922.5,106.4z"/>
</svg>
