<svg xmlns="http://www.w3.org/2000/svg" xmlns:xlink="http://www.w3.org/1999/xlink" viewBox="0 0 922.6 165">
	<path d="M71.7,119v4.5c0,8.9,1.4,10,9,10.4v2.4c-4.3-0.3-11.5-0.4-18.1-0.4c-7.7,0-14.9,0.1-19,0.4v-2.4
		c7.7-0.4,9-1.6,9-10.4v-4.4C24.3,117,8.5,105.3,8.5,84.4c0-19.1,16.1-31.5,44.1-33.8v-4.4c0-8.9-1.5-10-9-10.4v-2.4
		c4.1,0.3,11.3,0.4,19,0.4c6.6,0,13.8-0.1,18.1-0.4v2.4c-7.7,0.4-9,1.6-9,10.4v4.3c28.2,2,44,13.3,44,33.6
		C115.6,103.8,99.6,116.7,71.7,119z M52.6,116.9V52.6C35.5,55,28.5,64.9,28.5,83.9C28.5,104.2,36.4,114.2,52.6,116.9z M71.7,52.7
		V117c17-2.5,24-12.9,24-32.4C95.7,64.9,87.8,55.3,71.7,52.7z"/>
	<path d="M193.5,67.8c-5.6,0-7.7,1.9-7.7,8.7v39.7c0,6.7,2.1,8.6,7.7,8.6v2.5c-3.1-0.1-10-0.5-15.9-0.5
		c-6.1,0-12.6,0.4-15.6,0.5v-2.5c4.8,0,6.5-1.9,6.5-8.6V79.7l-22.9,38.9c0.4,4.9,2.2,6.3,6.4,6.3v2.5c-2.8-0.1-9-0.5-14.9-0.5
		c-6.2,0-13.4,0.4-16.6,0.5v-2.5c5.6,0,7.7-1.9,7.7-8.6V76.5c0-6.7-2.1-8.7-7.7-8.7v-2.5c3.1,0.1,10,0.5,15.8,0.5
		c6.2,0,12.7-0.4,15.6-0.5v2.5c-4.8,0-6.5,1.9-6.5,8.7v37.4l22.9-38.8c-0.2-5.6-2.1-7.3-6.5-7.3v-2.5c2.8,0.1,9,0.5,14.9,0.5
		c6.2,0,13.4-0.4,16.6-0.5V67.8z"/>
	<path d="M263.8,93.5c0,23.4-11,35.6-27.8,35.6c-4.9,0-9.3-1.3-12.3-3.9v12c0,7.5,4,9.4,10.8,9.4v2.5
		c-4-0.1-12-0.5-20.2-0.5c-5.9,0-12.1,0.4-15.1,0.5v-2.5c5.3,0,7.2-1.8,7.2-8.2v-60c0-7.2-1.9-10.6-7.7-10.6v-2.5
		c2.5,0.2,5,0.4,7.5,0.4c6.7,0,12.6-0.5,17.5-1.7v11.3c3.3-7.6,10.2-11.7,18.7-11.7C254.6,63.5,263.8,73.5,263.8,93.5z M245.7,95.9
		c0-20.4-4.1-27.2-10.4-27.2c-5.3,0-10.2,3.8-11.6,10.6v43.3c1.8,2.1,4.4,3.2,7.6,3.2C242,125.8,245.7,114.3,245.7,95.9z"/>
	<path d="M317.6,67.2c4,2.5,6.6,6.5,6.6,11.2c0,5.7-4,9.7-9.5,9.7c-5.7,0-9.3-3.5-9.3-8.9c0-5,3.6-8.7,7.9-9.9
		c-1.2-1.6-4-2.9-7.2-2.9c-10,0-15.2,12.1-15.2,28.5c0,18.7,8,24.2,15.9,24.2c4.5,0,10.9-1.8,15.7-9.8l2.1,0.8
		c-2.8,9-10.2,19-23.9,19c-15.7,0-28-9.9-28-32.5c0-21.7,12.7-33.1,29.7-33.1C308.7,63.5,314.1,65,317.6,67.2z"/>
	<path id="XMLID_20_" d="M377.2,68.9c3.5,3.6,4.3,8.5,4.3,16.8v32.7c0,3.9,0.6,5.3,2.6,5.3c1.7,0,3.1-1,4.4-2.1l1.2,2.1
		c-3.6,2.9-7.6,4.4-13.7,4.4c-8.8,0-11.5-4.6-11.6-9.7c-4.1,6.7-11,9.7-17.7,9.7c-9,0-15.2-4.9-15.2-13.7c0-8.7,5.8-13.6,16.9-17.7
		c8.9-3.3,15.8-5.6,15.8-10.8v-9.4c0-6.3-2.7-10.7-9.8-10.7c-2.9,0-6.4,0.8-8.6,2.9c4.3,1.5,7.1,4.6,7.1,9.4c0,5-3.9,8.6-9.8,8.6
		c-5.2,0-8.5-4-8.5-9.3c0-4.4,2.8-7.7,6.7-10c4.3-2.4,10.2-4.1,18.3-4.1C367.4,63.5,373.4,64.9,377.2,68.9z M364.2,91
		c-1.1,1.8-3.4,3.4-7.5,5.9c-4.2,3.1-8.2,7-8.2,14.3c0,6.6,3.2,9.3,7.5,9.3c2.9,0,5.6-1.3,8.1-4.9V91z"/>
	<path d="M464,67.8c-5.6,0-7.7,1.9-7.7,8.7v39.7c0,6.7,2.1,8.6,7.7,8.6v2.5c-3.1-0.1-10-0.5-15.9-0.5
		c-6.1,0-12.6,0.4-15.6,0.5v-2.5c4.8,0,6.5-1.9,6.5-8.6V96.6h-20.8v19.7c0,6.7,1.7,8.6,6.5,8.6v2.5c-2.8-0.1-9-0.5-14.9-0.5
		c-6.2,0-13.4,0.4-16.6,0.5v-2.5c5.6,0,7.7-1.9,7.7-8.6V76.5c0-6.7-2.1-8.7-7.7-8.7v-2.5c3.1,0.1,10,0.5,15.8,0.5
		c6.2,0,12.7-0.4,15.6-0.5v2.5c-4.8,0-6.5,1.9-6.5,8.7v17.7H439V76.5c0-6.7-1.8-8.7-6.5-8.7v-2.5c2.8,0.1,9,0.5,14.9,0.5
		c6.2,0,13.4-0.4,16.6-0.5V67.8z"/>
	<path id="XMLID_25_" d="M530.2,96.3c0,23.8-12.1,32.7-29.5,32.7c-17.3,0-29.4-8.9-29.4-32.7c0-23.8,12.1-32.8,29.4-32.8
		C518.1,63.5,530.2,72.6,530.2,96.3z M489.5,96.3c0,21.5,4.8,30.3,11.3,30.3c6.6,0,11.3-8.8,11.3-30.3c0-21.5-4.8-30.4-11.3-30.4
		C494.3,65.9,489.5,74.8,489.5,96.3z"/>
	<path id="XMLID_28_" d="M599.7,110.8c0,9.8-6.5,16.6-25.4,16.6c-5.1,0-12.6-0.5-20.1-0.5c-6.1,0-13.3,0.4-16.5,0.5v-2.5
		c5.6,0,7.7-1.9,7.7-8.6V76.5c0-6.7-2.1-8.7-7.7-8.7v-2.5c3.1,0.1,10,0.5,15.7,0.5c7.2,0,14.2-0.5,19.1-0.5
		c18.3,0,24.3,5.9,24.3,14.2c0,7.6-6.8,14.1-21.3,15.6C593.3,95.7,599.7,101.1,599.7,110.8z M562.7,76.5v18.3h1.9
		c12.1-0.2,14.7-4.9,14.7-13.9c0-7.2-1.7-13.1-10.4-13.1C564.2,67.8,562.7,69.6,562.7,76.5z M581.8,110.9c0-10.1-4.8-13.9-14.1-13.9
		h-5v19.2c0,7,1.6,8.6,6.5,8.6C579.5,124.8,581.8,118,581.8,110.9z"/>
	<path d="M675.9,124.8v2.5c-3,0.5-5.9,0.8-8.6,0.8c-9.3,0-14.6-3.3-16.6-11.8c-0.9-3.3-2.8-11.3-6.2-15.6
		c-2.3-2.9-5.9-4.3-11-4.3c-0.6,0-1.2,0.1-1.9,0.1v19.7c0,6.7,1.9,8.6,7.2,8.6v2.5c-3.1-0.1-10.2-0.5-16.1-0.5c-6,0-13,0.4-16,0.5
		v-2.5c5.6,0,7.7-1.9,7.7-8.6V76.5c0-6.7-2.1-8.7-7.7-8.7v-2.5c3.2,0.1,10.6,0.5,16.6,0.5c6,0,12.6-0.4,15.6-0.5v2.5
		c-5.2,0-7.2,1.9-7.2,8.7v17.9c10.8-0.7,13-5.2,15.6-14.6c2.6-9.4,4.7-16.3,14.7-16.3c8,0,11.3,4.2,11.3,9.6c0,5.7-3.7,9.2-9,9.2
		c-4.6,0-9.8-2.8-9.8-8.9c0-2.3,1.2-4.9,4.2-6.6c-6,0.8-6.9,5.4-9.6,15c-1.8,5.6-3.3,9.9-8.4,12.1c1.1-0.1,2.2-0.1,3.2-0.1
		c8.6,0,14.4,2.5,17.8,7c3.3,4.3,4.4,10.6,7.2,17.3C670.6,122.4,671.9,124.4,675.9,124.8z"/>
	<path d="M726.6,68.9c3.5,3.6,4.3,8.5,4.3,16.8v32.7c0,3.9,0.6,5.3,2.6,5.3c1.7,0,3.1-1,4.4-2.1l1.2,2.1
		c-3.6,2.9-7.6,4.4-13.7,4.4c-8.8,0-11.5-4.6-11.6-9.7c-4.1,6.7-11,9.7-17.7,9.7c-9,0-15.2-4.9-15.2-13.7c0-8.7,5.8-13.6,16.9-17.7
		c8.9-3.3,15.8-5.6,15.8-10.8v-9.4c0-6.3-2.7-10.7-9.8-10.7c-2.9,0-6.4,0.8-8.6,2.9c4.3,1.5,7.1,4.6,7.1,9.4c0,5-3.9,8.6-9.8,8.6
		c-5.2,0-8.5-4-8.5-9.3c0-4.4,2.8-7.7,6.7-10c4.3-2.4,10.2-4.1,18.3-4.1C716.8,63.5,722.7,64.9,726.6,68.9z M713.6,91
		c-1.1,1.8-3.4,3.4-7.5,5.9c-4.2,3.1-8.2,7-8.2,14.3c0,6.6,3.2,9.3,7.5,9.3c2.9,0,5.6-1.3,8.1-4.9V91z"/>
	<path d="M837.7,55.5c0,22.5-25.4,35-36.2,49.7h29.3c7.4,0,8.4-2,9-7.8h2.8c0,15.5,0.1,22.8,0.5,29.5
		c-2.4-0.7-12-0.9-20.1-0.9h-39.3v-3.4c10.2-13.5,32.8-33.7,32.8-61.4c0-12.3-4.4-17.8-12.7-17.8c-7.6,0-13.3,4.9-18.1,13.6
		l-2.2-1.9c5.4-11.8,14.5-21.8,31.5-21.8C829,33.3,837.7,41.4,837.7,55.5z"/>
	<path d="M905.7,55.5c0,22.5-25.4,35-36.2,49.7h29.3c7.4,0,8.4-2,9-7.8h2.8c0,15.5,0.1,22.8,0.5,29.5
		c-2.4-0.7-12-0.9-20.1-0.9h-39.3v-3.4c10.2-13.5,32.8-33.7,32.8-61.4c0-12.3-4.4-17.8-12.7-17.8c-7.6,0-13.3,4.9-18.1,13.6
		l-2.2-1.9c5.4-11.8,14.5-21.8,31.5-21.8C897,33.3,905.7,41.4,905.7,55.5z"/>
</svg>
