<svg xmlns="http://www.w3.org/2000/svg" viewBox="0 0 147.104 118.232">
	<polygon fill-rule="evenodd" clip-rule="evenodd" fill="#C1C3C5" points="63.833,66.38 45.604,55.856 39.433,61.268 71.651,79.869
	"/>
	<polygon fill-rule="evenodd" clip-rule="evenodd" fill="#D1D3D1" points="73.494,0.471 85.69,7.512 97.885,14.553 97.885,28.636
	97.885,42.718 85.69,49.759 73.494,56.801 61.298,49.759 49.102,42.718 49.102,28.636 49.102,14.553 61.298,7.512 "/>
	<path fill-rule="evenodd" clip-rule="evenodd" fill="#3D8132" d="M73.697,0.117l12.196,7.041h0.002L98.09,14.2l0.205,0.118v0.235
		v14.082v14.083v0.235l-0.205,0.118l-12.195,7.042h-0.002l-12.196,7.041l-0.203,0.118l-0.203-0.118l-12.196-7.041h-0.001
		l-12.195-7.042l-0.205-0.118v-0.235V28.636V14.553v-0.235l0.205-0.118l12.195-7.042h0.001l12.196-7.041L73.494,0L73.697,0.117
		L73.697,0.117z M85.485,7.864L73.494,0.941L61.502,7.864l0.001,0.001l-11.991,6.923v13.847v13.847l11.991,6.923l-0.001,0.001
		l11.992,6.923l11.992-6.923l0-0.001l11.991-6.923V28.636V14.788L85.485,7.864L85.485,7.864z"/>
	<polygon fill-rule="evenodd" clip-rule="evenodd" fill="#FFFFFF" points="89.835,45.406 96.187,41.74 96.187,28.636 96.187,24.313
		89.835,27.969 "/>
	<linearGradient id="SVGID_1_" gradientUnits="userSpaceOnUse" x1="50.9771" y1="34.8595" x2="59.5969" y2="34.8595">
		<stop  offset="0" style="stop-color:#4E5152"/>
		<stop  offset="1" style="stop-color:#D1D3D1"/>
	</linearGradient>
	<polygon fill-rule="evenodd" clip-rule="evenodd" fill="url(#SVGID_1_)" points="57.149,45.406 50.797,41.74 50.797,28.636
		50.797,24.313 57.149,27.969 "/>
	<polygon fill-rule="evenodd" clip-rule="evenodd" fill="#FFFFFF" points="85.592,47.819 78.487,51.922 78.487,17.158 85.592,13.057
		"/>
	<linearGradient id="SVGID_2_" gradientUnits="userSpaceOnUse" x1="86.0468" y1="30.456" x2="96.5078" y2="30.456">
		<stop  offset="0" style="stop-color:#4E5152"/>
		<stop  offset="1" style="stop-color:#D1D3D1"/>
	</linearGradient>
	<polygon fill-rule="evenodd" clip-rule="evenodd" fill="url(#SVGID_2_)" points="85.592,13.057 92.051,16.795 92.051,44.129
		85.592,47.855 "/>
	<polygon fill-rule="evenodd" clip-rule="evenodd" fill="#FFFFFF" points="61.281,47.793 54.929,44.125 54.929,17.227 61.281,13.56
		"/>
	<linearGradient id="SVGID_3_" gradientUnits="userSpaceOnUse" x1="61.7407" y1="32.5102" x2="72.3124" y2="32.5102">
		<stop  offset="0" style="stop-color:#4E5152"/>
		<stop  offset="1" style="stop-color:#D1D3D1"/>
	</linearGradient>
	<polygon fill-rule="evenodd" clip-rule="evenodd" fill="url(#SVGID_3_)" points="61.281,13.56 67.633,17.217 67.633,51.46
		61.281,47.793 "/>
	<polygon fill-rule="evenodd" clip-rule="evenodd" fill="#FFFFFF" points="73.493,54.843 66.893,51.032 66.893,6.239 73.493,2.428
		"/>
	<linearGradient id="SVGID_4_" gradientUnits="userSpaceOnUse" x1="74.5184" y1="28.6358" x2="82.7129" y2="28.6358">
		<stop  offset="0" style="stop-color:#4E5152"/>
		<stop  offset="1" style="stop-color:#D1D3D1"/>
	</linearGradient>
	<polygon fill-rule="evenodd" clip-rule="evenodd" fill="url(#SVGID_4_)" points="73.493,2.428 80.094,6.239 80.094,51.033
		73.493,54.843 "/>
	<linearGradient id="SVGID_5_" gradientUnits="userSpaceOnUse" x1="65.6253" y1="41.5793" x2="75.8211" y2="41.5793">
		<stop  offset="0" style="stop-color:#4E5152"/>
		<stop  offset="1" style="stop-color:#D1D3D1"/>
	</linearGradient>
	<polygon fill-rule="evenodd" clip-rule="evenodd" fill="url(#SVGID_5_)" points="70.833,53.356 65.059,50.022 65.059,29.803
		70.833,34.786 "/>
	<polygon fill-rule="evenodd" clip-rule="evenodd" fill="#FFFFFF" points="80.707,50.791 75.693,53.686 75.693,33.864 80.707,29.801
		"/>
	<linearGradient id="SVGID_6_" gradientUnits="userSpaceOnUse" x1="80.8065" y1="40.2397" x2="90.5444" y2="40.2397">
		<stop  offset="0" style="stop-color:#4E5152"/>
		<stop  offset="1" style="stop-color:#D1D3D1"/>
	</linearGradient>
	<polygon fill-rule="evenodd" clip-rule="evenodd" fill="url(#SVGID_6_)" points="86.482,47.345 84.842,48.291 80.707,50.679
		80.707,29.801 86.482,34.783 "/>
	<linearGradient id="SVGID_7_" gradientUnits="userSpaceOnUse" x1="73.9373" y1="58.1129" x2="34.0214" y2="48.1608">
		<stop  offset="0" style="stop-color:#488934"/>
		<stop  offset="1" style="stop-color:#58B947"/>
	</linearGradient>
	<polygon fill-rule="evenodd" clip-rule="evenodd" fill="url(#SVGID_7_)" points="39.433,27.184 39.433,61.268 71.651,79.869
		71.651,60.474 48.558,47.142 48.558,54.296 63.833,63.116 63.833,66.38 45.604,55.856 45.604,30.747 "/>
	<polygon fill-rule="evenodd" clip-rule="evenodd" fill="#FFFFFF" points="65.059,50.022 62.145,48.34 58.706,46.354 58.706,34.95
		65.059,29.803 "/>
	<linearGradient id="SVGID_8_" gradientUnits="userSpaceOnUse" x1="64.7221" y1="60.4267" x2="8.6074" y2="23.9853">
		<stop  offset="0" style="stop-color:#488733"/>
		<stop  offset="1" style="stop-color:#58B947"/>
	</linearGradient>
	<polygon fill-rule="evenodd" clip-rule="evenodd" fill="url(#SVGID_8_)" points="45.604,55.856 45.604,30.747 39.433,27.184
		39.433,61.268 "/>
	<linearGradient id="SVGID_9_" gradientUnits="userSpaceOnUse" x1="60.446" y1="53.0406" x2="57.2461" y2="60.2278">
		<stop  offset="0" style="stop-color:#559939"/>
		<stop  offset="1" style="stop-color:#58B947"/>
	</linearGradient>
	<polygon fill-rule="evenodd" clip-rule="evenodd" fill="url(#SVGID_9_)" points="48.558,47.141 48.558,54.296 63.833,63.116
		71.651,60.474 "/>
	<linearGradient id="SVGID_10_" gradientUnits="userSpaceOnUse" x1="70.798" y1="58.2565" x2="65.7239" y2="80.2348">
		<stop  offset="0" style="stop-color:#529739"/>
		<stop  offset="1" style="stop-color:#58B947"/>
	</linearGradient>
	<polygon fill-rule="evenodd" clip-rule="evenodd" fill="url(#SVGID_10_)" points="71.651,60.474 63.833,63.116 63.833,66.38
		71.651,79.869 "/>
	<linearGradient id="SVGID_11_" gradientUnits="userSpaceOnUse" x1="110.7863" y1="42.7831" x2="67.4937" y2="66.7806">
		<stop  offset="0" style="stop-color:#569B3A"/>
		<stop  offset="1" style="stop-color:#145A21"/>
	</linearGradient>
	<polygon fill-rule="evenodd" clip-rule="evenodd" fill="url(#SVGID_11_)" points="107.514,27.184 107.514,61.268 75.296,79.869
		75.296,60.474 98.389,47.142 98.389,54.296 83.113,63.116 83.113,66.38 101.343,55.856 101.343,30.747 "/>
	<linearGradient id="SVGID_12_" gradientUnits="userSpaceOnUse" x1="104.4283" y1="23.7923" x2="104.4283" y2="64.6598">
		<stop  offset="0" style="stop-color:#569B3A"/>
		<stop  offset="1" style="stop-color:#145A21"/>
	</linearGradient>
	<polygon fill-rule="evenodd" clip-rule="evenodd" fill="url(#SVGID_12_)" points="101.343,55.856 101.343,30.747 107.514,27.184
		107.514,61.268 "/>
	<linearGradient id="SVGID_13_" gradientUnits="userSpaceOnUse" x1="89.6648" y1="58.8995" x2="85.2704" y2="50.9719">
		<stop  offset="0" style="stop-color:#569B3A"/>
		<stop  offset="1" style="stop-color:#145A21"/>
	</linearGradient>
	<polygon fill-rule="evenodd" clip-rule="evenodd" fill="url(#SVGID_13_)" points="98.389,47.141 98.389,54.296 83.113,63.116
		75.296,60.474 "/>
	<linearGradient id="SVGID_14_" gradientUnits="userSpaceOnUse" x1="79.2046" y1="85.5539" x2="79.2046" y2="56.6594">
		<stop  offset="0" style="stop-color:#569B3A"/>
		<stop  offset="1" style="stop-color:#145A21"/>
	</linearGradient>
	<polygon fill-rule="evenodd" clip-rule="evenodd" fill="url(#SVGID_14_)" points="75.296,60.474 83.113,63.116 83.113,66.38
		75.296,79.869 "/>
	<path fill-rule="evenodd" clip-rule="evenodd" fill="#414042" d="M129.897,107.466v-0.998l3.092-4.888
		c-0.532-0.233-0.981-0.515-1.347-0.848c-0.366-0.332-0.661-0.706-0.885-1.122c-0.225-0.416-0.382-0.865-0.474-1.347
		c-0.092-0.482-0.137-0.989-0.137-1.521v-0.997c0-0.748,0.108-1.455,0.324-2.12c0.216-0.665,0.598-1.248,1.147-1.746
		c1.527-1.388,3.085-1.025,5.123-1.122h10.363v16.709h-4.489v-5.261l-5.023-0.001l-3.356,5.262H129.897L129.897,107.466z
		 M137.927,94.492c-0.815,0-1.447,0.046-1.896,0.137c-0.448,0.091-0.777,0.22-0.985,0.386c-0.208,0.166-0.329,0.354-0.362,0.562
		c-0.033,0.207-0.05,0.419-0.05,0.636c0,0.399,0.026,0.74,0.075,1.022c0.049,0.282,0.204,0.516,0.461,0.698
		c0.257,0.183,0.662,0.321,1.21,0.412c0.548,0.091,1.322,0.137,2.319,0.137c0.432,0,0.998-0.013,1.696-0.037
		c0.698-0.024,1.438-0.087,2.219-0.187v-3.541c-0.831-0.083-1.675-0.141-2.531-0.174C139.228,94.509,138.509,94.492,137.927,94.492z"
		/>
	<polygon fill-rule="evenodd" clip-rule="evenodd" fill="#414042" points="122.74,90.758 127.228,90.758 127.228,107.466
		122.74,107.466 122.74,96.743 113.986,107.466 109.498,107.466 109.498,90.758 113.986,90.758 113.986,101.481 "/>
	<polygon fill-rule="evenodd" clip-rule="evenodd" fill="#414042" points="96.58,107.466 96.58,94.748 90.096,94.748 90.096,90.758
		107.578,90.758 107.578,94.748 101.069,94.748 101.069,107.466 "/>
	<polygon fill-rule="evenodd" clip-rule="evenodd" fill="#414042" points="74.959,90.758 74.959,97.242 83.687,97.242 83.687,90.758
		88.176,90.758 88.176,107.466 83.687,107.466 83.687,101.232 74.959,101.232 74.959,107.466 70.47,107.466 70.47,90.758 "/>
	<path fill-rule="evenodd" clip-rule="evenodd" fill="#414042" d="M49.199,107.466v-0.998l7.432-15.711h4.489l7.432,15.711v0.998
		h-4.04l-1.447-3.242H54.66l-1.421,3.242H49.199L49.199,107.466z M61.418,100.483l-2.544-5.711l-2.544,5.711H61.418z"/>
	<path fill-rule="evenodd" clip-rule="evenodd" fill="#414042" d="M50.352,97.242c0,0.831-0.104,1.609-0.312,2.332
		c-0.208,0.723-0.561,1.355-1.06,1.895c-0.499,0.54-1.176,0.968-2.033,1.284c-0.856,0.316-1.932,0.474-3.229,0.474H43.02
		c-0.897,0-1.775-0.025-2.631-0.025l-2.506,0v4.264h-4.489V90.758c3.342-0.001,6.042-0.001,9.383-0.002
		c2.557,0.079,4.437-0.379,6.103,1.261c0.548,0.54,0.931,1.176,1.147,1.908c0.216,0.731,0.324,1.505,0.324,2.319V97.242
		L50.352,97.242z M42.322,99.478c0.881,0,1.563-0.062,2.045-0.187c0.482-0.124,0.836-0.299,1.06-0.524
		c0.224-0.225,0.353-0.486,0.387-0.786c0.033-0.299,0.05-0.632,0.05-0.998c0-0.366-0.016-0.702-0.05-1.01
		c-0.034-0.308-0.158-0.569-0.374-0.785c-0.216-0.216-0.549-0.387-0.998-0.511c-0.449-0.124-1.097-0.187-1.945-0.187
		c-0.532,0-1.227,0.018-2.082,0.05s-1.7,0.091-2.531,0.174v4.539c0.781,0.1,1.521,0.162,2.219,0.187
		C40.801,99.465,41.541,99.478,42.322,99.478z"/>
	<path fill-rule="evenodd" clip-rule="evenodd" fill="#414042" d="M12.122,107.466v-0.998l7.432-15.711h4.489l7.432,15.711v0.998
		h-4.04l-1.447-3.242h-8.404l-1.421,3.242H12.122L12.122,107.466z M24.342,100.483l-2.544-5.711l-2.544,5.711H24.342z"/>
	<polygon fill-rule="evenodd" clip-rule="evenodd" fill="#414042" points="14.988,94.748 4.489,94.748 4.489,107.466 0,107.466
		0,90.758 14.988,90.758 "/>
	<path fill-rule="evenodd" clip-rule="evenodd" fill="#34712B" d="M23.889,116.991c-0.156,0.402-0.408,0.718-0.755,0.949
		c-0.348,0.231-0.768,0.346-1.259,0.346c-0.372,0-0.695-0.062-0.971-0.184c-0.276-0.123-0.505-0.289-0.686-0.499
		s-0.318-0.454-0.409-0.733c-0.092-0.279-0.136-0.571-0.136-0.877v-1.789c0-0.306,0.045-0.595,0.136-0.868
		c0.091-0.273,0.229-0.514,0.414-0.724c0.184-0.21,0.415-0.376,0.691-0.499c0.276-0.123,0.597-0.184,0.962-0.184
		c0.486,0,0.899,0.114,1.241,0.342c0.342,0.228,0.594,0.531,0.755,0.908l-0.567,0.261c-0.114-0.276-0.292-0.5-0.535-0.674
		c-0.243-0.174-0.538-0.261-0.885-0.261c-0.27,0-0.504,0.048-0.702,0.144c-0.198,0.096-0.364,0.223-0.499,0.382
		c-0.135,0.159-0.235,0.343-0.301,0.553c-0.066,0.21-0.099,0.426-0.099,0.647v1.736c0,0.228,0.033,0.446,0.099,0.657
		c0.066,0.21,0.166,0.396,0.301,0.558c0.135,0.162,0.301,0.292,0.499,0.391c0.198,0.099,0.432,0.148,0.702,0.148
		c0.354,0,0.652-0.09,0.895-0.27c0.243-0.18,0.424-0.423,0.544-0.729L23.889,116.991L23.889,116.991z M26.506,112.513v5.72h-0.611
		v-5.72H24.06v-0.54h4.263v0.54H26.506L26.506,112.513z M33.331,113.835c0,0.209-0.041,0.422-0.122,0.638
		c-0.081,0.216-0.201,0.409-0.36,0.58c-0.159,0.171-0.357,0.31-0.593,0.418c-0.237,0.108-0.511,0.162-0.823,0.162h-1.763v2.599H29.06
		v-6.259h2.266c0.252,0,0.499,0.035,0.742,0.103c0.243,0.069,0.457,0.177,0.643,0.324c0.186,0.147,0.336,0.339,0.45,0.576
		C33.274,113.213,33.331,113.499,33.331,113.835L33.331,113.835z M32.684,113.808c0-0.216-0.035-0.403-0.103-0.562
		c-0.069-0.159-0.165-0.291-0.288-0.396c-0.123-0.105-0.267-0.184-0.431-0.238c-0.165-0.054-0.34-0.081-0.526-0.081h-1.664v2.536h1.7
		c0.228,0,0.424-0.037,0.589-0.112c0.165-0.075,0.301-0.171,0.409-0.288c0.108-0.117,0.187-0.25,0.238-0.4
		C32.658,114.117,32.684,113.964,32.684,113.808L32.684,113.808z M36.051,111.928c0.342,0,0.646,0.057,0.916,0.171
		c0.268,0.114,0.498,0.273,0.687,0.477c0.189,0.204,0.331,0.444,0.43,0.719c0.099,0.276,0.149,0.578,0.149,0.908v1.789
		c0,0.354-0.051,0.672-0.153,0.953c-0.102,0.282-0.246,0.522-0.435,0.719c-0.189,0.198-0.418,0.351-0.687,0.459
		c-0.27,0.108-0.571,0.162-0.907,0.162c-0.37,0-0.694-0.062-0.969-0.184c-0.274-0.123-0.502-0.289-0.682-0.499
		c-0.178-0.21-0.313-0.454-0.403-0.733c-0.09-0.279-0.135-0.571-0.135-0.877v-1.789c0-0.306,0.045-0.595,0.135-0.868
		c0.09-0.273,0.226-0.514,0.408-0.724c0.183-0.21,0.41-0.376,0.682-0.499C35.359,111.989,35.681,111.928,36.051,111.928
		L36.051,111.928z M36.069,112.504c-0.268,0-0.502,0.048-0.7,0.144c-0.197,0.096-0.363,0.222-0.498,0.378
		c-0.133,0.156-0.234,0.339-0.3,0.549c-0.066,0.21-0.099,0.426-0.099,0.648v1.754c0,0.228,0.033,0.447,0.099,0.657
		c0.066,0.21,0.166,0.396,0.3,0.558c0.135,0.162,0.301,0.292,0.498,0.391c0.198,0.099,0.431,0.148,0.7,0.148
		c0.24,0,0.454-0.045,0.646-0.135c0.19-0.09,0.354-0.213,0.488-0.369c0.135-0.156,0.237-0.343,0.309-0.562
		c0.072-0.219,0.108-0.454,0.108-0.706v-1.735c0-0.24-0.036-0.465-0.108-0.675c-0.072-0.21-0.172-0.391-0.304-0.544
		c-0.132-0.153-0.295-0.274-0.489-0.364C36.525,112.549,36.309,112.504,36.069,112.504L36.069,112.504z M43.349,118.232v-5.153
		c-0.006,0-0.009-0.002-0.009-0.004c0-0.003-0.003-0.005-0.009-0.005c-0.57,0.857-1.138,1.717-1.704,2.581
		c-0.567,0.863-1.135,1.723-1.704,2.581H39.33v-6.259h0.611v5.279c0,0,0.006,0.003,0.018,0.009c0.582-0.881,1.16-1.761,1.736-2.64
		c0.575-0.878,1.157-1.761,1.745-2.648h0.522v6.259H43.349L43.349,118.232z M47.072,112.513v5.72h-0.611v-5.72h-1.835v-0.54h4.263
		v0.54H47.072L47.072,112.513z M49.617,118.232v-6.259h3.885v0.558h-3.273v2.266h2.788v0.539h-2.788v2.338h3.273v0.558H49.617
		L49.617,118.232z M58.745,111.973v6.259h-0.611v-5.72h-2.545v2.977c0,0.492-0.038,0.905-0.114,1.241
		c-0.076,0.336-0.186,0.611-0.328,0.827c-0.142,0.216-0.315,0.385-0.516,0.508c-0.201,0.123-0.424,0.217-0.67,0.283
		c-0.03-0.084-0.058-0.169-0.085-0.256c-0.027-0.087-0.056-0.172-0.086-0.256c0.186-0.084,0.352-0.175,0.499-0.274
		c0.147-0.099,0.271-0.235,0.373-0.409c0.102-0.174,0.18-0.402,0.233-0.683c0.054-0.282,0.081-0.651,0.081-1.106v-3.39H58.745
		L58.745,111.973z M60.049,118.232v-6.259h0.612v2.779h1.7c0.312,0,0.587,0.045,0.827,0.135c0.24,0.09,0.444,0.212,0.612,0.364
		c0.167,0.153,0.295,0.334,0.382,0.544c0.087,0.21,0.13,0.432,0.13,0.665c0,0.312-0.054,0.58-0.162,0.805
		c-0.108,0.225-0.255,0.409-0.441,0.553c-0.186,0.144-0.399,0.249-0.638,0.315c-0.24,0.066-0.492,0.099-0.755,0.099H60.049
		L60.049,118.232z M63.682,116.479c0-0.15-0.029-0.294-0.085-0.432c-0.057-0.138-0.142-0.261-0.257-0.369
		c-0.114-0.108-0.255-0.195-0.422-0.261c-0.168-0.066-0.36-0.099-0.576-0.099H60.66v2.356h1.681c0.186,0,0.361-0.022,0.526-0.067
		c0.165-0.045,0.307-0.117,0.427-0.216c0.12-0.099,0.214-0.223,0.283-0.373C63.647,116.868,63.682,116.688,63.682,116.479
		L63.682,116.479z M68.88,118.232v-2.896h-3.057v2.896H65.21v-6.259h0.612v2.824h3.057v-2.824h0.612v6.259H68.88L68.88,118.232z
		 M74.77,118.232c-0.09-0.246-0.179-0.492-0.265-0.738c-0.087-0.246-0.173-0.494-0.256-0.746h-2.806
		c-0.09,0.252-0.178,0.501-0.265,0.746c-0.087,0.246-0.172,0.492-0.256,0.738h-0.639c0.378-1.049,0.757-2.092,1.138-3.13
		c0.381-1.037,0.763-2.08,1.147-3.13h0.558l2.293,6.259H74.77L74.77,118.232z M72.827,112.755c-0.048,0.156-0.123,0.381-0.225,0.675
		c-0.102,0.294-0.21,0.602-0.324,0.926c-0.132,0.36-0.256,0.709-0.373,1.047c-0.117,0.339-0.214,0.613-0.292,0.823h2.455
		l-0.701-2.023l-0.513-1.448H72.827L72.827,112.755z M76.676,113.736c0,0.196,0.036,0.364,0.108,0.504
		c0.072,0.139,0.171,0.255,0.297,0.343c0.126,0.09,0.273,0.156,0.441,0.196c0.168,0.042,0.351,0.063,0.549,0.063h1.583v-2.329h-1.637
		c-0.192,0-0.369,0.027-0.531,0.081c-0.162,0.053-0.303,0.13-0.423,0.231c-0.12,0.102-0.214,0.229-0.283,0.383
		C76.711,113.364,76.676,113.539,76.676,113.736L76.676,113.736z M79.653,115.382h-1.439c-0.126,0-0.25,0.015-0.373,0.045
		c-0.123,0.03-0.238,0.084-0.346,0.162c-0.108,0.078-0.208,0.184-0.301,0.319c-0.093,0.135-0.169,0.307-0.229,0.517l-0.513,1.808
		h-0.647l0.522-1.89c0.084-0.294,0.186-0.53,0.305-0.71c0.12-0.182,0.294-0.316,0.522-0.406c-0.204-0.054-0.374-0.133-0.512-0.238
		c-0.138-0.105-0.25-0.223-0.337-0.358c-0.087-0.135-0.148-0.28-0.184-0.436c-0.036-0.156-0.054-0.309-0.054-0.459
		c0-0.252,0.044-0.486,0.131-0.701c0.087-0.215,0.211-0.4,0.373-0.556c0.162-0.156,0.358-0.279,0.589-0.369
		c0.231-0.09,0.49-0.135,0.778-0.135h2.329v6.259h-0.611V115.382L79.653,115.382z M83.628,118.232v-6.241h0.611v2.77h1.259
		c0.108,0,0.216-0.012,0.324-0.036c0.108-0.024,0.214-0.069,0.319-0.135c0.105-0.066,0.202-0.162,0.292-0.288
		c0.09-0.126,0.168-0.288,0.234-0.486l0.584-1.826h0.602l-0.566,1.808c-0.096,0.306-0.217,0.562-0.364,0.769
		c-0.147,0.207-0.325,0.343-0.535,0.409c0.276,0.078,0.484,0.226,0.625,0.445s0.256,0.481,0.346,0.787l0.603,2.023h-0.657
		l-0.566-1.952c-0.06-0.209-0.132-0.379-0.216-0.508c-0.084-0.129-0.175-0.229-0.274-0.301c-0.099-0.072-0.205-0.121-0.319-0.148
		c-0.114-0.027-0.234-0.041-0.36-0.041h-1.331v2.95H83.628L83.628,118.232z M90.736,111.928c0.342,0,0.646,0.057,0.916,0.171
		c0.268,0.114,0.498,0.273,0.686,0.477c0.189,0.204,0.331,0.444,0.43,0.719c0.099,0.276,0.148,0.578,0.148,0.908v1.789
		c0,0.354-0.051,0.672-0.153,0.953c-0.102,0.282-0.246,0.522-0.435,0.719c-0.189,0.198-0.418,0.351-0.687,0.459
		c-0.27,0.108-0.571,0.162-0.907,0.162c-0.37,0-0.694-0.062-0.969-0.184c-0.274-0.123-0.502-0.289-0.682-0.499
		c-0.178-0.21-0.313-0.454-0.403-0.733c-0.09-0.279-0.135-0.571-0.135-0.877v-1.789c0-0.306,0.045-0.595,0.135-0.868
		c0.09-0.273,0.227-0.514,0.408-0.724c0.183-0.21,0.411-0.376,0.682-0.499C90.044,111.989,90.366,111.928,90.736,111.928
		L90.736,111.928z M90.755,112.504c-0.268,0-0.502,0.048-0.7,0.144c-0.196,0.096-0.363,0.222-0.498,0.378
		c-0.133,0.156-0.234,0.339-0.3,0.549c-0.066,0.21-0.099,0.426-0.099,0.648v1.754c0,0.228,0.033,0.447,0.099,0.657
		c0.066,0.21,0.166,0.396,0.3,0.558c0.135,0.162,0.301,0.292,0.498,0.391c0.198,0.099,0.431,0.148,0.7,0.148
		c0.24,0,0.454-0.045,0.646-0.135c0.19-0.09,0.354-0.213,0.488-0.369c0.135-0.156,0.237-0.343,0.309-0.562
		c0.072-0.219,0.108-0.454,0.108-0.706v-1.735c0-0.24-0.036-0.465-0.108-0.675c-0.072-0.21-0.173-0.391-0.305-0.544
		c-0.132-0.153-0.295-0.274-0.489-0.364C91.21,112.549,90.994,112.504,90.755,112.504L90.755,112.504z M98.843,113.349
		c0,0-0.006,0.003-0.018,0.009c-0.12,0.27-0.238,0.532-0.355,0.787c-0.117,0.255-0.235,0.517-0.355,0.787l-1.106,2.347h-0.522
		c-0.192-0.396-0.379-0.793-0.562-1.191c-0.183-0.399-0.367-0.799-0.553-1.201l-0.71-1.538c0,0.006-0.006,0.009-0.018,0.009v4.874
		H94.05v-6.259h0.603l1.37,2.941c0.024,0.054,0.072,0.159,0.144,0.315c0.072,0.156,0.147,0.323,0.225,0.499
		c0.079,0.177,0.153,0.343,0.222,0.499c0.069,0.156,0.116,0.261,0.139,0.315h0.018l0.622-1.376l1.476-3.192h0.586v6.259h-0.611
		V113.349L98.843,113.349z M104.419,118.232v-5.72h-3.058v5.72h-0.612v-6.259h4.281v6.259H104.419L104.419,118.232z M110.309,118.232
		c-0.09-0.246-0.178-0.492-0.265-0.738c-0.087-0.246-0.172-0.494-0.256-0.746h-2.806c-0.09,0.252-0.179,0.501-0.265,0.746
		c-0.087,0.246-0.172,0.492-0.256,0.738h-0.639c0.378-1.049,0.757-2.092,1.138-3.13c0.38-1.037,0.763-2.08,1.146-3.13h0.558
		l2.293,6.259H110.309L110.309,118.232z M108.367,112.755c-0.048,0.156-0.123,0.381-0.225,0.675c-0.102,0.294-0.21,0.602-0.324,0.926
		c-0.132,0.36-0.256,0.709-0.373,1.047c-0.117,0.339-0.214,0.613-0.292,0.823h2.455l-0.701-2.023l-0.512-1.448H108.367
		L108.367,112.755z M115.417,118.232v-2.896h-3.057v2.896h-0.612v-6.259h0.612v2.824h3.057v-2.824h0.612v6.259H115.417
		L115.417,118.232z M121.406,118.232v-5.153c-0.006,0-0.009-0.002-0.009-0.004c0-0.003-0.003-0.005-0.009-0.005
		c-0.57,0.857-1.138,1.717-1.704,2.581c-0.567,0.863-1.135,1.723-1.704,2.581h-0.594v-6.259h0.611v5.279c0,0,0.006,0.003,0.018,0.009
		c0.581-0.881,1.16-1.761,1.735-2.64c0.576-0.878,1.157-1.761,1.745-2.648h0.522v6.259H121.406L121.406,118.232z M123.807,113.736
		c0,0.196,0.036,0.364,0.108,0.504c0.072,0.139,0.171,0.255,0.297,0.343c0.126,0.09,0.273,0.156,0.44,0.196
		c0.168,0.042,0.351,0.063,0.549,0.063h1.583v-2.329h-1.637c-0.192,0-0.369,0.027-0.53,0.081c-0.162,0.053-0.303,0.13-0.423,0.231
		c-0.12,0.102-0.214,0.229-0.283,0.383C123.842,113.364,123.807,113.539,123.807,113.736L123.807,113.736z M126.784,115.382h-1.439
		c-0.126,0-0.25,0.015-0.373,0.045c-0.123,0.03-0.238,0.084-0.346,0.162c-0.108,0.078-0.208,0.184-0.301,0.319
		c-0.093,0.135-0.169,0.307-0.229,0.517l-0.512,1.808h-0.647l0.522-1.89c0.084-0.294,0.186-0.53,0.306-0.71
		c0.12-0.182,0.294-0.316,0.522-0.406c-0.204-0.054-0.375-0.133-0.513-0.238c-0.138-0.105-0.25-0.223-0.337-0.358
		c-0.087-0.135-0.149-0.28-0.185-0.436c-0.036-0.156-0.054-0.309-0.054-0.459c0-0.252,0.043-0.486,0.13-0.701
		c0.087-0.215,0.211-0.4,0.373-0.556c0.162-0.156,0.358-0.279,0.589-0.369c0.231-0.09,0.49-0.135,0.778-0.135h2.33v6.259h-0.612
		V115.382z"/>
</svg>
