<svg xmlns="http://www.w3.org/2000/svg" xmlns:xlink="http://www.w3.org/1999/xlink" viewBox="0 0 229.12 56.93">
   <defs>
      <style>
        .marc-1,
        .marc-2,
        .marc-3,
        .marc-4{
          fill-rule:evenodd;
        }
        .marc-1{
          fill:url(#grad1);
        }
        .marc-2{
          fill:url(#grad2);
          }
        .marc-3{
          fill:url(#grad3);
        }
        .marc-4{
          fill:url(#grad4);
        }
        .marc-5{
          fill:#201600;
        }
      </style>
      <linearGradient id="grad1" x1="9.38" y1="33.92" x2="59.64" y2="8.31" gradientUnits="userSpaceOnUse">
         <stop offset="0" stop-color="#c2a58b"/>
         <stop offset="0.71" stop-color="#f3dda6"/>
      </linearGradient>
      <linearGradient id="grad2" x1="13.4" y1="43.31" x2="56.69" y2="21.25" xlink:href="#grad1"/>
      <linearGradient id="grad3" x1="17.21" y1="51.13" x2="52.47" y2="33.16" xlink:href="#grad1"/>
      <linearGradient id="grad4" x1="5.64" y1="23.93" x2="51.96" y2="0.33" xlink:href="#grad1"/>
   </defs>
   <path class="marc-1" d="M8.74,30.67c.59,1.9,1.25,3.86,2,5.86a172.89,172.89,0,0,1,47.2-22q.58-3.79.94-7.82A167.56,167.56,0,0,0,8.74,30.67Z" transform="translate(-6.39 -1.83)"/>
   <path class="marc-2" d="M13.66,43.82A183.57,183.57,0,0,1,54.77,29q1.06-3.71,1.93-7.72A155.52,155.52,0,0,0,11.17,37.77C11.92,39.76,12.75,41.78,13.66,43.82Z" transform="translate(-6.39 -1.83)"/>
   <path class="marc-3" d="M14.23,45.1c1,2.08,2,4.18,3.15,6.29h0a184,184,0,0,1,32.83-9.53q1.51-3.54,2.86-7.5A147.7,147.7,0,0,0,14.23,45.1Z" transform="translate(-6.39 -1.83)"/>
   <path class="marc-4" d="M36.2,1.83a181.71,181.71,0,0,0-29.81,20c.52,2.29,1.14,4.73,1.89,7.27h0A196.29,196.29,0,0,1,53.09,2.55C49,2.28,43,1.95,36.2,1.83Z" transform="translate(-6.39 -1.83)"/>
   <path d="M68.85,38.81v-24h2.57v4.16a12,12,0,0,1,2.2-2.64A8.34,8.34,0,0,1,79,14.41a7,7,0,0,1,5.45,2.24,8,8,0,0,1,1.29,2.42,10.8,10.8,0,0,1,2.47-2.95,8.79,8.79,0,0,1,5.51-1.71q7.38,0,7.38,7.76V38.81H98.36V22.42a6.22,6.22,0,0,0-1.23-4.23,4.81,4.81,0,0,0-3.78-1.38,7.26,7.26,0,0,0-3.62.89,6.34,6.34,0,0,0-2.48,2.5,7.48,7.48,0,0,0-.89,3.68V38.81H83.63V22.69q0-5.79-5-5.78a7.18,7.18,0,0,0-3.63.9,6.23,6.23,0,0,0-2.44,2.54,7.82,7.82,0,0,0-.87,3.72V38.81Z" transform="translate(-6.39 -1.83)"/>
   <path d="M122.41,26.24l-2,.46-6.92,1.05a6.07,6.07,0,0,0-3.43,1.59,4.08,4.08,0,0,0-1.34,3,4,4,0,0,0,1.43,3.22A5.82,5.82,0,0,0,114,36.79a10.72,10.72,0,0,0,3.62-.64,8.93,8.93,0,0,0,3-1.75A4.81,4.81,0,0,0,122,32.09a16.65,16.65,0,0,0,.39-4.11V26.24Zm.19,9a22.17,22.17,0,0,1-2.23,1.91,12.25,12.25,0,0,1-2,1.13,11.52,11.52,0,0,1-4.65,1,9.34,9.34,0,0,1-4.07-.87A6.86,6.86,0,0,1,106.82,36a6.22,6.22,0,0,1-1-3.5,6.43,6.43,0,0,1,1.09-3.57,6.79,6.79,0,0,1,2.85-2.5,21.27,21.27,0,0,1,7.2-1.56q1.41-.1,2.8-.32a4.89,4.89,0,0,0,2.06-.64c.46-.28.69-1,.69-2.21a5.15,5.15,0,0,0-.78-3.11,4.47,4.47,0,0,0-2.13-1.47,9.07,9.07,0,0,0-3.23-.56,6.8,6.8,0,0,0-5,1.79A5.81,5.81,0,0,0,109.81,22h-2.73a8.2,8.2,0,0,1,.65-3,7.08,7.08,0,0,1,1.93-2.59,8.66,8.66,0,0,1,3-1.6,13,13,0,0,1,3.91-.56,11.84,11.84,0,0,1,4.69.84,6.33,6.33,0,0,1,3,2.46,7.21,7.21,0,0,1,1,3.91V34.17a8.79,8.79,0,0,0,.1,1.63,1.38,1.38,0,0,0,.42.71,1.76,1.76,0,0,0,1.19.37q.18,0,1-.09v1.94a6.23,6.23,0,0,1-2,.38,3.22,3.22,0,0,1-2.57-.91,4.52,4.52,0,0,1-.78-3Z" transform="translate(-6.39 -1.83)"/>
   <path d="M132.11,38.81v-24h2.67v4.9a14.68,14.68,0,0,1,1.09-2.12,7.15,7.15,0,0,1,1.24-1.4,6.28,6.28,0,0,1,2.13-1.29,12.8,12.8,0,0,1,3.17-.45V17.3a9.15,9.15,0,0,0-3.43.59q-4,1.66-4,7.81V38.81Z" transform="translate(-6.39 -1.83)"/>
   <path d="M162.36,30.53h2.75A16.33,16.33,0,0,1,164,34.43,8.18,8.18,0,0,1,162,37a9.6,9.6,0,0,1-6.62,2.37,10.41,10.41,0,0,1-5.67-1.53A9.88,9.88,0,0,1,146,33.43a15.84,15.84,0,0,1-1.3-6.64,16.15,16.15,0,0,1,.77-5.11,11.76,11.76,0,0,1,2.19-4,9.67,9.67,0,0,1,3.42-2.57,10.51,10.51,0,0,1,4.37-.9A9.6,9.6,0,0,1,162,16.58a7.07,7.07,0,0,1,1.85,2.3,13.56,13.56,0,0,1,1,3.59h-2.67a11.84,11.84,0,0,0-1.16-3,5.51,5.51,0,0,0-1.82-1.74,6.39,6.39,0,0,0-3.59-1.06,7.1,7.1,0,0,0-4.16,1.26,8.08,8.08,0,0,0-2.8,3.56,13.37,13.37,0,0,0-1,5.31,14.24,14.24,0,0,0,.94,5.43,7.67,7.67,0,0,0,2.72,3.52A7.19,7.19,0,0,0,155.46,37a6.33,6.33,0,0,0,4-1.29,7.16,7.16,0,0,0,1.65-1.89,10.78,10.78,0,0,0,1.2-3.26Z" transform="translate(-6.39 -1.83)"/>
   <path d="M171.7,27.06a13.05,13.05,0,0,0,1,5.24,7.59,7.59,0,0,0,2.77,3.41,7.5,7.5,0,0,0,4.23,1.19,7.38,7.38,0,0,0,7.13-4.67,13.07,13.07,0,0,0,1-5.27,15.07,15.07,0,0,0-.93-5.61,7.31,7.31,0,0,0-2.74-3.5,7.73,7.73,0,0,0-4.35-1.19,8.26,8.26,0,0,0-3.42.68,6.63,6.63,0,0,0-2.55,2,9.3,9.3,0,0,0-1.57,3.29,16.76,16.76,0,0,0-.54,4.41Zm-2.91-.52A15.32,15.32,0,0,1,170.11,20a9.5,9.5,0,0,1,3.8-4.26,11.33,11.33,0,0,1,5.87-1.47,11.9,11.9,0,0,1,4.6.85,9.12,9.12,0,0,1,3.44,2.47,11,11,0,0,1,2.14,4,17.88,17.88,0,0,1,.73,5.35,15.57,15.57,0,0,1-1.3,6.63,9.44,9.44,0,0,1-3.77,4.26,11.36,11.36,0,0,1-5.9,1.47,12.09,12.09,0,0,1-4.63-.84,9,9,0,0,1-3.44-2.45,10.85,10.85,0,0,1-2.12-4,18.44,18.44,0,0,1-.73-5.41Z" transform="translate(-6.39 -1.83)"/>
   <path d="M195.55,38.81v-24h2.66v4.05a12,12,0,0,1,2.61-2.8,9.1,9.1,0,0,1,5.29-1.6A11.33,11.33,0,0,1,210,15a6.18,6.18,0,0,1,2.68,1.76,6.1,6.1,0,0,1,1.24,2.68,25.84,25.84,0,0,1,.33,4.84V38.81h-2.79V24a12.65,12.65,0,0,0-.56-4.59q-1.1-2.61-5.1-2.61a7.81,7.81,0,0,0-3.94,1,6.49,6.49,0,0,0-2.61,2.75,9.07,9.07,0,0,0-.91,4.18V38.81Z" transform="translate(-6.39 -1.83)"/>
   <path d="M220.21,14.77H223v24h-2.79v-24Zm0-9H223V9.9h-2.79V5.74Z" transform="translate(-6.39 -1.83)"/>
   <polygon points="222.96 36.98 222.96 33.06 221.63 33.06 221.63 32.7 224.68 32.7 224.68 33.06 223.36 33.06 223.36 36.98 222.96 36.98 222.96 36.98"/>
   <polygon points="225.22 36.98 225.22 32.7 225.9 32.7 227.2 36.49 228.47 32.7 229.12 32.7 229.12 36.98 228.72 36.98 228.72 33.06 227.37 36.98 227 36.98 225.63 33.06 225.63 36.98 225.22 36.98 225.22 36.98"/>
   <path class="marc-5" d="M67.4,53.5a3.67,3.67,0,0,1,.31-1.57,2.27,2.27,0,0,1,.91-1,2.71,2.71,0,0,1,1.4-.35,2.84,2.84,0,0,1,1.1.2,2.17,2.17,0,0,1,.82.59,2.64,2.64,0,0,1,.51.95,4.26,4.26,0,0,1,.18,1.28,3.73,3.73,0,0,1-.31,1.58,2.26,2.26,0,0,1-.9,1,2.71,2.71,0,0,1-1.41.35,2.89,2.89,0,0,1-1.1-.2,2.14,2.14,0,0,1-.82-.59,2.58,2.58,0,0,1-.51-1,4.44,4.44,0,0,1-.17-1.29Zm.69.12a3.1,3.1,0,0,0,.23,1.25A1.74,1.74,0,0,0,70,56a1.76,1.76,0,0,0,1.71-1.11,3.11,3.11,0,0,0,.24-1.26,3.58,3.58,0,0,0-.22-1.34,1.75,1.75,0,0,0-.65-.83,1.86,1.86,0,0,0-1-.28,2,2,0,0,0-.82.16,1.59,1.59,0,0,0-.61.48,2.21,2.21,0,0,0-.38.78,4,4,0,0,0-.13,1.05Zm5.7,2.81V50.68h.67v2.9l2.83-2.9h.84L75.84,53l2.56,3.44h-.76l-2.26-3-.92.79v2.21Zm5-2.93a3.67,3.67,0,0,1,.31-1.57,2.27,2.27,0,0,1,.91-1,2.71,2.71,0,0,1,1.4-.35,2.84,2.84,0,0,1,1.1.2,2.17,2.17,0,0,1,.82.59,2.64,2.64,0,0,1,.51.95,4.26,4.26,0,0,1,.18,1.28,3.73,3.73,0,0,1-.31,1.58,2.26,2.26,0,0,1-.9,1,2.71,2.71,0,0,1-1.41.35,2.89,2.89,0,0,1-1.1-.2,2.14,2.14,0,0,1-.82-.59,2.58,2.58,0,0,1-.51-1,4.44,4.44,0,0,1-.17-1.29Zm.69.12a3.09,3.09,0,0,0,.23,1.25A1.74,1.74,0,0,0,81.42,56a1.76,1.76,0,0,0,1.71-1.11,3.11,3.11,0,0,0,.24-1.26,3.58,3.58,0,0,0-.22-1.34,1.75,1.75,0,0,0-.65-.83,1.86,1.86,0,0,0-1-.28,2,2,0,0,0-.82.16,1.58,1.58,0,0,0-.61.48,2.21,2.21,0,0,0-.38.78,4,4,0,0,0-.13,1.05Zm6.36.08v2.73H85.2V50.68h.67v2.44H88.8V50.68h.67v5.75H88.8V53.7Zm5.74,0v2.73h-.67V50.68h.67v2.44h2.92V50.68h.67v5.75h-.67V53.7Zm5.07-3h.67v2.18h1.1a2.17,2.17,0,0,1,1.47.44,1.61,1.61,0,0,1,.51,1.28,1.92,1.92,0,0,1-.24,1,1.58,1.58,0,0,1-.7.63,2.5,2.5,0,0,1-1.09.22H96.69V50.68ZM101,56.43V50.68h.67v5.75Zm-3.66-.65h1.23a1.1,1.1,0,0,0,.85-.32,1.27,1.27,0,0,0,.3-.9,1,1,0,0,0-.31-.78,1.32,1.32,0,0,0-.9-.27H97.36v2.28Zm6.19-2.09a4.13,4.13,0,0,0,.23,1.22,1.8,1.8,0,0,0,.67.8,1.72,1.72,0,0,0,1,.31,1.68,1.68,0,0,0,.86-.24,1.6,1.6,0,0,0,.47-.42,3,3,0,0,0,.32-.7h.66a2.5,2.5,0,0,1-.24.75A2.09,2.09,0,0,1,107,56a2.28,2.28,0,0,1-.73.39,2.94,2.94,0,0,1-.91.13,2.18,2.18,0,0,1-1.67-.65,2.46,2.46,0,0,1-.43-.63,3.41,3.41,0,0,1-.28-.82,4.28,4.28,0,0,1-.1-.9,4,4,0,0,1,.18-1.23,2.73,2.73,0,0,1,.51-.95,2.2,2.2,0,0,1,.8-.6,2.51,2.51,0,0,1,1-.21,2.21,2.21,0,0,1,1.72.71,2.16,2.16,0,0,1,.46.76,3.46,3.46,0,0,1,.18.69,7.78,7.78,0,0,1,.06,1Zm0-.53h3.57a3.58,3.58,0,0,0-.27-1.12,1.54,1.54,0,0,0-1.49-.89,1.65,1.65,0,0,0-1.1.38,1.87,1.87,0,0,0-.42.52,3.25,3.25,0,0,0-.28,1.1Zm12.24,1.29h.66a3.94,3.94,0,0,1-.26.93,2,2,0,0,1-.47.6,2.29,2.29,0,0,1-1.58.57,2.49,2.49,0,0,1-1.36-.37,2.36,2.36,0,0,1-.89-1,3.78,3.78,0,0,1-.31-1.58,3.83,3.83,0,0,1,.18-1.22,2.8,2.8,0,0,1,.52-1,2.31,2.31,0,0,1,.82-.61,2.51,2.51,0,0,1,1-.21,2.29,2.29,0,0,1,1.56.56,1.71,1.71,0,0,1,.44.55,3.33,3.33,0,0,1,.23.86h-.64a2.82,2.82,0,0,0-.28-.72,1.32,1.32,0,0,0-.44-.41,1.53,1.53,0,0,0-.86-.25,1.71,1.71,0,0,0-1,.3,1.93,1.93,0,0,0-.67.85,3.18,3.18,0,0,0-.24,1.27,3.39,3.39,0,0,0,.23,1.29,1.82,1.82,0,0,0,.65.84,1.72,1.72,0,0,0,1,.29,1.52,1.52,0,0,0,1-.31,1.75,1.75,0,0,0,.4-.45,2.61,2.61,0,0,0,.29-.78Zm5.45-2.88-2.83,4.86h-.76V50.68h.67v5l2.85-5h.74v5.75h-.67V51.57Zm6,2.88H128a3.93,3.93,0,0,1-.26.93,2,2,0,0,1-.47.6,2.29,2.29,0,0,1-1.58.57,2.49,2.49,0,0,1-1.36-.37,2.36,2.36,0,0,1-.89-1,3.78,3.78,0,0,1-.31-1.58,3.83,3.83,0,0,1,.18-1.22,2.8,2.8,0,0,1,.52-1,2.31,2.31,0,0,1,.82-.61,2.51,2.51,0,0,1,1-.21,2.29,2.29,0,0,1,1.56.56,1.71,1.71,0,0,1,.44.55,3.33,3.33,0,0,1,.23.86h-.64a2.82,2.82,0,0,0-.28-.72,1.32,1.32,0,0,0-.44-.41,1.53,1.53,0,0,0-.86-.25,1.71,1.71,0,0,0-1,.3,1.93,1.93,0,0,0-.67.85,3.18,3.18,0,0,0-.24,1.27,3.39,3.39,0,0,0,.23,1.29,1.82,1.82,0,0,0,.65.84,1.72,1.72,0,0,0,1,.29,1.52,1.52,0,0,0,1-.31,1.75,1.75,0,0,0,.4-.45,2.61,2.61,0,0,0,.29-.78Zm3.65-3.19v5.17h-.67V51.26h-1.82v-.58h4.32v.58Zm3,2.43a4.13,4.13,0,0,0,.23,1.22,1.8,1.8,0,0,0,.67.8,1.72,1.72,0,0,0,1,.31,1.68,1.68,0,0,0,.86-.24,1.6,1.6,0,0,0,.47-.42,3,3,0,0,0,.32-.7h.66a2.5,2.5,0,0,1-.24.75,2.09,2.09,0,0,1-.51.62,2.28,2.28,0,0,1-.73.39,2.94,2.94,0,0,1-.91.13,2.18,2.18,0,0,1-1.67-.65,2.46,2.46,0,0,1-.43-.63,3.42,3.42,0,0,1-.28-.82,4.28,4.28,0,0,1-.1-.9,4,4,0,0,1,.18-1.23,2.73,2.73,0,0,1,.51-.95,2.2,2.2,0,0,1,.8-.6,2.51,2.51,0,0,1,1-.21,2.21,2.21,0,0,1,1.72.71,2.16,2.16,0,0,1,.46.76,3.47,3.47,0,0,1,.18.69,7.79,7.79,0,0,1,.06,1Zm0-.53h3.57a3.58,3.58,0,0,0-.27-1.12,1.54,1.54,0,0,0-1.49-.89,1.65,1.65,0,0,0-1.1.38,1.87,1.87,0,0,0-.42.52,3.25,3.25,0,0,0-.28,1.1Zm5.42,3.27V50.68h1.12L142.06,56h0l1.53-5.31h1.1v5.75H144V51.24h0l-1.51,5.19h-.94L140,51.24h0v5.19Zm6.84-5.75h.67v2.18H148a2.17,2.17,0,0,1,1.47.44,1.61,1.61,0,0,1,.51,1.28,1.92,1.92,0,0,1-.24,1,1.58,1.58,0,0,1-.7.63,2.5,2.5,0,0,1-1.09.22h-1.71V50.68Zm4.33,5.75V50.68h.67v5.75Zm-3.66-.65h1.23a1.1,1.1,0,0,0,.85-.32,1.27,1.27,0,0,0,.3-.9,1,1,0,0,0-.31-.78,1.32,1.32,0,0,0-.9-.27h-1.18v2.28Zm8.91.65v-7.9h.73V52H161V48.53h.72v7.9H161V52.61H156.5v3.82Zm7.64,0V50.68h.67v5.75Zm0-6.91v-1h.67v1Zm7,1.16v5.45a3.07,3.07,0,0,1-.3,1.43,2,2,0,0,1-.89.89,3.08,3.08,0,0,1-1.43.3,2.67,2.67,0,0,1-1.86-.59,1.3,1.3,0,0,1-.32-.41,3,3,0,0,1-.19-.67h.68a1.49,1.49,0,0,0,.23.57,1,1,0,0,0,.42.33,2.51,2.51,0,0,0,1,.2,2.17,2.17,0,0,0,1.38-.44,1.38,1.38,0,0,0,.38-.48,2.42,2.42,0,0,0,.18-.63,10.48,10.48,0,0,0,0-1.08v-.1a4.68,4.68,0,0,1-.71.75,2,2,0,0,1-1.24.38,2.46,2.46,0,0,1-1.34-.37,2.42,2.42,0,0,1-.9-1,3.56,3.56,0,0,1-.32-1.54,4.26,4.26,0,0,1,.17-1.25,2.75,2.75,0,0,1,.5-1,2.15,2.15,0,0,1,.79-.6,2.52,2.52,0,0,1,1-.21A2.41,2.41,0,0,1,169,51a2.72,2.72,0,0,1,.7.77v-1Zm-4.46,2.91a3.44,3.44,0,0,0,.13,1,2.35,2.35,0,0,0,.39.78,1.72,1.72,0,0,0,.61.5,1.76,1.76,0,0,0,.78.17,1.8,1.8,0,0,0,.79-.17,1.71,1.71,0,0,0,.61-.5,2.33,2.33,0,0,0,.4-.78,3.5,3.5,0,0,0,.14-1,3.33,3.33,0,0,0-.23-1.29,1.88,1.88,0,0,0-.67-.85,1.77,1.77,0,0,0-1-.3,1.84,1.84,0,0,0-1,.29,1.81,1.81,0,0,0-.67.84,3.35,3.35,0,0,0-.23,1.3Zm5.94,2.84v-7.9h.67v3.1a2.78,2.78,0,0,1,.63-.66,2.26,2.26,0,0,1,1.31-.38,1.87,1.87,0,0,1,1.49.6,1.33,1.33,0,0,1,.3.61,6.29,6.29,0,0,1,.07,1.16v3.47h-.67V53a3.31,3.31,0,0,0-.13-1.15,1.14,1.14,0,0,0-1.2-.67,1.83,1.83,0,0,0-.94.24,1.6,1.6,0,0,0-.64.67,2.14,2.14,0,0,0-.23,1v3.37Zm5.59-2.78V53h2.65v.69Zm4.2,0a4.13,4.13,0,0,0,.23,1.22,1.8,1.8,0,0,0,.67.8,1.72,1.72,0,0,0,1,.31,1.68,1.68,0,0,0,.86-.24,1.6,1.6,0,0,0,.47-.42,3,3,0,0,0,.32-.7h.66a2.5,2.5,0,0,1-.24.75,2.09,2.09,0,0,1-.51.62,2.28,2.28,0,0,1-.73.39,2.94,2.94,0,0,1-.91.13,2.18,2.18,0,0,1-1.67-.65,2.46,2.46,0,0,1-.43-.63,3.42,3.42,0,0,1-.28-.82,4.28,4.28,0,0,1-.1-.9,4,4,0,0,1,.18-1.23,2.73,2.73,0,0,1,.51-.95,2.2,2.2,0,0,1,.8-.6,2.51,2.51,0,0,1,1-.21,2.21,2.21,0,0,1,1.72.71,2.16,2.16,0,0,1,.46.76,3.47,3.47,0,0,1,.18.69,7.79,7.79,0,0,1,.06,1Zm0-.53h3.57A3.58,3.58,0,0,0,185,52a1.54,1.54,0,0,0-1.49-.89,1.65,1.65,0,0,0-1.1.38,1.87,1.87,0,0,0-.42.52,3.25,3.25,0,0,0-.28,1.1Zm5.42,3.27V50.68h.64v1a2.83,2.83,0,0,1,.63-.67,2.17,2.17,0,0,1,1.27-.38,2.7,2.7,0,0,1,.93.15,1.34,1.34,0,0,1,.94,1.06,6.15,6.15,0,0,1,.08,1.16v3.47h-.67V52.9a3,3,0,0,0-.13-1.1,1.17,1.17,0,0,0-1.22-.62,1.86,1.86,0,0,0-.94.23,1.55,1.55,0,0,0-.62.66,2.18,2.18,0,0,0-.22,1v3.37Zm10.72-7.9v7.9h-.66v-1a3.88,3.88,0,0,1-.42.52,2.1,2.1,0,0,1-.43.31,2.31,2.31,0,0,1-1.14.27,2.46,2.46,0,0,1-1-.21,2.22,2.22,0,0,1-.79-.6,2.72,2.72,0,0,1-.51-.95,4.37,4.37,0,0,1,0-2.46,2.8,2.8,0,0,1,.51-1,2.21,2.21,0,0,1,.8-.61,2.49,2.49,0,0,1,1-.21,2.25,2.25,0,0,1,1.48.51,3,3,0,0,1,.5.62V48.53Zm-4.46,5.09a3.13,3.13,0,0,0,.23,1.26,1.86,1.86,0,0,0,.67.83,1.8,1.8,0,0,0,1,.29,1.84,1.84,0,0,0,1-.28,1.75,1.75,0,0,0,.66-.82,3.26,3.26,0,0,0,.23-1.28,3.54,3.54,0,0,0-.22-1.33,1.76,1.76,0,0,0-.66-.83,1.87,1.87,0,0,0-1-.28,1.83,1.83,0,0,0-1,.29,1.79,1.79,0,0,0-.66.84,3.51,3.51,0,0,0-.23,1.32Zm8.85,2.81V50.68h.67v2.9l2.83-2.9h.84L204.27,53l2.56,3.44h-.76l-2.26-3-.92.79v2.21Zm8.65,0v-5.1h-2.21v3a3.17,3.17,0,0,1-.32,1.63,1.09,1.09,0,0,1-.43.41,1.16,1.16,0,0,1-.57.16,1.53,1.53,0,0,1-.46-.1v-.57a.93.93,0,0,0,.41.13.57.57,0,0,0,.47-.26.6.6,0,0,0,.16-.33,4.62,4.62,0,0,0,.06-.55c0-.26,0-.5,0-.69V50.68h3.52v5.75Zm5.85-.86a5.37,5.37,0,0,1-.53.46,2.91,2.91,0,0,1-.48.27,2.76,2.76,0,0,1-1.11.24,2.22,2.22,0,0,1-1-.21,1.62,1.62,0,0,1-.68-.58,1.49,1.49,0,0,1-.25-.84,1.54,1.54,0,0,1,.26-.85,1.61,1.61,0,0,1,.68-.6,5.06,5.06,0,0,1,1.72-.37c.23,0,.45,0,.67-.08a1.18,1.18,0,0,0,.49-.15c.11-.07.17-.25.17-.53a1.22,1.22,0,0,0-.19-.74,1.06,1.06,0,0,0-.51-.35,2.18,2.18,0,0,0-.77-.13,1.64,1.64,0,0,0-1.2.43,1.39,1.39,0,0,0-.36.87H213a2,2,0,0,1,.16-.71,1.7,1.7,0,0,1,.46-.62,2.07,2.07,0,0,1,.72-.38,3.14,3.14,0,0,1,.93-.13,2.83,2.83,0,0,1,1.12.2,1.5,1.5,0,0,1,.71.59,1.71,1.71,0,0,1,.24.93v3a2.19,2.19,0,0,0,0,.39.34.34,0,0,0,.1.17.41.41,0,0,0,.29.09l.24,0v.46a1.47,1.47,0,0,1-.48.09.77.77,0,0,1-.61-.22,1.08,1.08,0,0,1-.19-.71Zm0-2.15-.47.11-1.66.25a1.46,1.46,0,0,0-.82.38,1,1,0,0,0-.32.73,1,1,0,0,0,.34.77,1.4,1.4,0,0,0,.92.28,2.61,2.61,0,0,0,.87-.15,2.15,2.15,0,0,0,.72-.42,1.15,1.15,0,0,0,.32-.55,3.94,3.94,0,0,0,.09-1v-.42Zm6.21,1h.66a3.94,3.94,0,0,1-.26.93,2,2,0,0,1-.47.6,2.29,2.29,0,0,1-1.58.57,2.49,2.49,0,0,1-1.36-.37,2.36,2.36,0,0,1-.89-1,3.78,3.78,0,0,1-.31-1.58,3.83,3.83,0,0,1,.18-1.22,2.8,2.8,0,0,1,.52-1,2.31,2.31,0,0,1,.82-.61,2.51,2.51,0,0,1,1-.21,2.3,2.3,0,0,1,1.56.56,1.71,1.71,0,0,1,.44.55,3.33,3.33,0,0,1,.23.86h-.64a2.82,2.82,0,0,0-.28-.72,1.32,1.32,0,0,0-.44-.41,1.53,1.53,0,0,0-.86-.25,1.71,1.71,0,0,0-1,.3,1.93,1.93,0,0,0-.67.85,3.18,3.18,0,0,0-.24,1.27,3.39,3.39,0,0,0,.23,1.29,1.82,1.82,0,0,0,.65.84,1.72,1.72,0,0,0,1,.29,1.52,1.52,0,0,0,1-.31,1.75,1.75,0,0,0,.4-.45,2.61,2.61,0,0,0,.29-.78Zm5.76,0h.66a3.94,3.94,0,0,1-.26.93,2,2,0,0,1-.47.6,2.29,2.29,0,0,1-1.58.57,2.49,2.49,0,0,1-1.36-.37,2.36,2.36,0,0,1-.89-1,3.78,3.78,0,0,1-.31-1.58,3.83,3.83,0,0,1,.18-1.22,2.8,2.8,0,0,1,.52-1,2.31,2.31,0,0,1,.82-.61,2.51,2.51,0,0,1,1-.21,2.3,2.3,0,0,1,1.56.56,1.71,1.71,0,0,1,.44.55,3.33,3.33,0,0,1,.23.86h-.64a2.82,2.82,0,0,0-.28-.72,1.32,1.32,0,0,0-.44-.41,1.53,1.53,0,0,0-.86-.25,1.71,1.71,0,0,0-1,.3,1.93,1.93,0,0,0-.67.85,3.18,3.18,0,0,0-.24,1.27,3.39,3.39,0,0,0,.23,1.29,1.82,1.82,0,0,0,.65.84,1.72,1.72,0,0,0,1,.29,1.52,1.52,0,0,0,1-.31,1.76,1.76,0,0,0,.4-.45,2.62,2.62,0,0,0,.29-.78Zm5.57,1.13a5.36,5.36,0,0,1-.53.46,2.91,2.91,0,0,1-.48.27,2.76,2.76,0,0,1-1.11.24,2.22,2.22,0,0,1-1-.21,1.62,1.62,0,0,1-.68-.58,1.49,1.49,0,0,1-.25-.84,1.54,1.54,0,0,1,.26-.85,1.61,1.61,0,0,1,.68-.6,5.06,5.06,0,0,1,1.72-.37c.23,0,.45,0,.67-.08a1.18,1.18,0,0,0,.49-.15c.11-.07.17-.25.17-.53a1.22,1.22,0,0,0-.19-.74,1.06,1.06,0,0,0-.51-.35,2.18,2.18,0,0,0-.77-.13,1.64,1.64,0,0,0-1.2.43,1.39,1.39,0,0,0-.36.87h-.65a2,2,0,0,1,.16-.71,1.7,1.7,0,0,1,.46-.62,2.07,2.07,0,0,1,.72-.38,3.14,3.14,0,0,1,.93-.13,2.83,2.83,0,0,1,1.12.2,1.5,1.5,0,0,1,.71.59,1.71,1.71,0,0,1,.24.93v3a2.19,2.19,0,0,0,0,.39.34.34,0,0,0,.1.17.41.41,0,0,0,.29.09l.24,0v.46a1.48,1.48,0,0,1-.48.09.77.77,0,0,1-.61-.22,1.08,1.08,0,0,1-.19-.71Zm0-2.15-.47.11-1.66.25a1.46,1.46,0,0,0-.82.38,1,1,0,0,0-.32.73,1,1,0,0,0,.34.77,1.4,1.4,0,0,0,.92.28,2.61,2.61,0,0,0,.87-.15,2.15,2.15,0,0,0,.72-.42,1.15,1.15,0,0,0,.32-.55,4,4,0,0,0,.09-1v-.42Z" transform="translate(-6.39 -1.83)"/>
</svg>
