<svg xmlns="http://www.w3.org/2000/svg" xmlns:xlink="http://www.w3.org/1999/xlink" viewBox="0 0 960 560">
	<path d="M456.2,370c-3.9,0-7.6-1.5-10.3-4.3L299,218.8c-2.8-2.8-4.3-6.4-4.3-10.3c0-3.9,1.5-7.6,4.3-10.3
		L445.9,51.3c2.8-2.8,6.4-4.3,10.3-4.3c3.9,0,7.6,1.5,10.3,4.3l146.9,146.9c2.8,2.8,4.3,6.4,4.3,10.3c0,3.9-1.5,7.6-4.3,10.3
		L466.5,365.7C463.8,368.5,460.1,370,456.2,370z M456.2,54c-2,0-3.9,0.8-5.4,2.2L303.9,203.1c-1.4,1.4-2.2,3.3-2.2,5.4
		c0,2,0.8,3.9,2.2,5.4l146.9,146.9c1.4,1.4,3.3,2.2,5.4,2.2c2,0,3.9-0.8,5.4-2.2l146.9-146.9c1.4-1.4,2.2-3.3,2.2-5.4
		c0-2-0.8-3.9-2.2-5.4L461.6,56.2C460.1,54.8,458.2,54,456.2,54z"/>
	<path d="M469.2,152.2c-10.8,1.5-14.6,6-14.6,22.5v95.3c-1.2-0.1-2.6-0.1-4-0.1c-1.5,0-3,0-4.6,0.1l-72.9-93.8v65.5
			c0,18.8,1.5,23.1,16.3,24.6v3.4c-4.3-0.3-12.1-0.5-18.2-0.5c-5.3,0-11.1,0.2-14.6,0.5v-3.4c10.8-1.5,12.6-6,12.6-22.5v-76.8
			c0-12.4-2-14.2-12.6-14.7v-3.4c3.5,0.3,9.4,0.5,14.6,0.5c5.3,0,10.6-0.2,14.5-0.5l65,81.4v-53.4c0-18.8-1.5-23.1-16.3-24.6v-3.4
			c4.7,0,11.8,0,17.9,0c5.3,0,12.8,0,16.9,0V152.2z"/>
	<path d="M555.8,149.9c-12,0.4-15.1,1.8-15.1,11.9v50.8c0,2.3,0,4.7,0,7.3c0,10.2,0.7,21.4-2.2,28.9
					c-5,12.8-13.3,21.1-39.6,21.1c-23.7,0-26.6-24.6-26.6-29.2c0-10,6.3-18.2,15.2-18.2c8.5,0,17.4,6.5,17.4,15.3
					c0,13.1-11.4,17.6-21,16.2c-9.3-1.3-1.3,11.7,8.9,13c11.1,1.5,18.4-0.7,21.2-6.5c3.4-7.2,2.1-16.1,2.1-35.3l0.1-62.6
					c0-10.1-6.6-12.5-18.4-12.9v-2.8c6.1,0.3,17,0.4,28.5,0.4c10.9,0,22.5-0.1,29.5-0.4V149.9z"/>
	<circle cx="488.5" cy="238.4" r="16.3"/>
	<path d="M261.5,479.5c0,6.7,2.5,8.6,9.1,8.6v2.5c-2.8-0.1-9-0.5-14.5-0.5s-11.8,0.4-14.5,0.5v-2.5
		c6.6,0,9.1-1.9,9.1-8.6V442c0-7.2-2.2-10.6-9.1-10.6v-2.5c2.5,0.2,5,0.4,7.4,0.4c4.7,0,9-0.5,12.5-1.6V479.5z M263,406.6
		c0,4.2-3.5,7.7-7.7,7.7c-4.2,0-7.7-3.5-7.7-7.7c0-4.2,3.5-7.7,7.7-7.7C259.4,398.9,263,402.4,263,406.6z"/>
	<path d="M319.8,433.2c3.6,2.2,5.6,5.2,5.6,8.6c0,4-2.8,6.2-6.3,6.2c-3.6,0-6.6-2-6.6-5.6c0-3.3,2.3-5.4,5-6.1
		c-1.6-2.7-6.2-4.7-10.8-4.7c-7.9,0-17.2,6.2-17.2,27.2c0,19.7,8,26.4,17.3,26.4c6.2,0,13.2-3,17.4-11.4l2.3,0.8
		c-2.4,7.2-9.3,15.5-22.1,15.5c-14.9,0-26.5-11.1-26.5-29.4c0-18.2,11.5-30.9,27.9-30.9C310.9,429.6,315.9,430.8,319.8,433.2z"/>
	<path d="M382.9,459.9c0,21.3-12,30.1-27.2,30.1c-15.2,0-27.2-8.8-27.2-30.1c0-21.4,12-30.2,27.2-30.2
		C370.9,429.6,382.9,438.5,382.9,459.9z M340.1,459.9c0,19.8,6.5,27.9,15.6,27.9c9.1,0,15.6-8,15.6-27.9c0-19.9-6.4-28-15.6-28
		C346.6,431.9,340.1,440,340.1,459.9z"/>
	<path d="M531.8,475.9c0,6.9,2.2,10.1,9.1,10.1v2.4c-2.5-0.2-5-0.3-7.4-0.3c-4.7,0-9,0.5-12.5,1.6v-13.6
		c-4.1,10-12,13.9-19.7,13.9c-5.6,0-9.7-1.6-12.5-4.4c-3-3.1-4-7.8-4-15.1v-29c0-6.9-2.1-10.2-9.1-10.2v-2.4
		c2.5,0.2,5,0.3,7.4,0.3c4.7,0,9-0.5,12.5-1.6V473c0,7.2,0.5,13.2,9.1,13.2c9.4,0,16.2-9.1,16.2-20.9v-23.8
		c0-6.9-2.2-10.2-9.1-10.2v-2.4c2.5,0.2,5,0.3,7.4,0.3c4.7,0,9-0.5,12.5-1.6V475.9z"/>
	<path d="M566.1,479.5c0,6.7,2.5,8.6,9.1,8.6v2.5c-2.8-0.1-9-0.5-14.5-0.5c-5.5,0-11.8,0.4-14.5,0.5v-2.5
		c6.6,0,9.1-1.9,9.1-8.6V411c0-7.2-2.2-10.5-9.1-10.5V398c2.5,0.2,5,0.4,7.4,0.4c4.7,0,9-0.5,12.5-1.7V479.5z"/>
	<path d="M606.7,479.5c0,6.7,2.6,8.6,9.3,8.6v2.5c-2.8-0.1-9.2-0.5-14.8-0.5c-5.6,0-12,0.4-14.8,0.5v-2.5
		c6.7,0,9.3-1.9,9.3-8.6V442c0-7.2-2.2-10.6-9.3-10.6v-2.5c2.6,0.2,5.1,0.4,7.6,0.4c4.8,0,9.2-0.5,12.7-1.6V479.5z M608.2,406.6
		c0,4.2-3.6,7.7-7.8,7.7c-4.3,0-7.8-3.5-7.8-7.7c0-4.2,3.5-7.7,7.8-7.7C604.6,398.9,608.2,402.4,608.2,406.6z"/>
	<path d="M664.4,433.2c3.8,3.7,4.8,7.9,4.8,16v31.7c0,3.7,0.9,5.4,3.7,5.4c2.2,0,3.7-1.1,5.4-2.4l1.3,1.9
		c-3.3,2.4-5.9,4.2-10.9,4.2c-8.4,0-10.3-4.8-10.3-10.1c-5.2,8.1-12.7,10.1-18.4,10.1c-8,0-15.2-3.8-15.2-12.8
		c0-9,7.3-13,19.3-17.8c8-3.2,14.3-5.1,14.3-9.7v-7.1c0-9.6-4.9-11.5-11.1-11.5c-4.1,0-9.1,0.8-11.9,4.1c3,0.7,5.6,3.2,5.6,7
		c0,3.9-2.8,6.2-7,6.2c-4.1,0-6.5-3-6.5-7.1c0-3.3,2.3-6,5.6-8.1c3.4-2.1,9.1-4.3,16.8-4.3C656.6,428.9,661.6,430.6,664.4,433.2z
		 M658.3,454.4c-1.3,1.8-3.9,3-11.5,6.5c-5.3,2.4-11.7,5.7-11.7,14.5c0,6.9,4.1,10,9.6,10c4.8,0,9.5-2.4,13.5-8.6V454.4z"/>
	<path d="M733.1,432c2.7,3.2,3.7,7.4,3.7,15.5v31.5c0,6.6,2.3,8.5,8.2,8.5v2.5c-2.5-0.1-8.2-0.5-12.9-0.5
		c-4.7,0-9.8,0.3-12,0.5v-2.5c5.1,0,7.1-1.9,7.1-8.5v-34.1c0-7.3-0.9-13.6-8.7-13.6c-9,0-15.1,9.4-15.1,21.5v26.2
		c0,6.6,1.9,8.5,7.1,8.5v2.5c-2.3-0.1-7.3-0.5-12.1-0.5c-4.7,0-10.4,0.3-12.9,0.5v-2.5c5.9,0,8.2-1.9,8.2-8.5v-36.9
		c0-7.1-1.9-10.4-8.2-10.4v-2.5c2.3,0.2,4.5,0.3,6.7,0.3c4.2,0,8.1-0.5,11.2-1.6v13.9c3.8-10.6,11-14.2,18.3-14.2
		C727.2,427.6,730.7,429.2,733.1,432z"/>
	<path d="M806,428.9v2.4c-2.8,0.4-5.2,2.3-7.3,8.4l-18.5,51.5l-3.9,10.4c-1.5,4.1-3,6.7-4.9,8.4
		c-2.5,2.4-6.1,3.1-8.8,3.1c-4.3,0-7.7-2.5-7.7-7.2c0-3.8,2.3-6.3,6-6.3c3.1,0,5.7,1.9,5.7,5.6c0,2.8-1.5,4.5-3,5.4
		c0.2,0.1,0.4,0.1,0.7,0.1c4.1,0,7.2-2.8,9.6-9.4l4-10.9l-20.5-52.3c-2.9-6.3-5.8-6.7-7.7-6.7v-2.5c3.3,0.5,6.8,0.8,11.1,0.8
		c4.6,0,10.1-0.4,14.7-0.8v2.5c-4.2,0-7.9,0-7.9,4.2c0,1.4,0.4,3.3,1.4,5.9l13.6,35.8l12.5-34.7c0.8-2.2,1.2-4,1.2-5.5
		c0-3.8-2.7-5.4-8.4-5.8v-2.4c4,0.2,6,0.4,9.5,0.4C800.9,429.2,803.6,429.1,806,428.9z"/>
	<path d="M476.5,406.6c-8.4,0.3-12.6,1.3-12.6,8.4v35.6c0,1.6,0,3.3,0,5.1c0,7.1,0,14.8-1.5,20.3
					c-2.1,7.2-6.8,15.6-25.2,15.6c-17.4,0-19.2-18-19.2-21.2c0-7,4.3-7.5,10.5-7.5c6,0,4.5-0.1,4.5,6.1c0,9.2-1.1,10.3-7.8,9.4
					c-6.5-0.9,0,9.5,7.1,10.5c7.8,1.1,12.9-0.5,14.8-4.6c2.4-5,1.6-11.3,1.6-24.7v-43.9c0-7.1-4.6-8.7-12.9-9v-1.9
					c4.3,0.2,11.9,0.3,20,0.3c7.6,0,15.8-0.1,20.7-0.3V406.6z"/>
	<circle cx="429.4" cy="469.7" r="11.4"/>
	<path d="M237,408.2c-9,0.4-10.7,2.8-10.7,11.5v71.5h-3l-55.6-77.8v63.3c0,8.8,1.7,11.2,12,11.5v2.4
		c-3.2-0.2-9-0.4-13.5-0.4c-4.5,0-9.4,0.1-12.3,0.4v-2.4c9-0.4,10.7-2.8,10.7-11.5v-58.3c0-8.7-1.7-10-10.7-10.3v-2.4
		c2.9,0.2,7.8,0.4,12.3,0.4c3.9,0,7.4-0.1,10.3-0.4l46.7,65.2v-51.3c0-8.8-1.7-11.2-12-11.5v-2.4c3.2,0.2,9,0.4,13.5,0.4
		c4.5,0,9.4-0.1,12.3-0.4V408.2z"/>
</svg>